<mxfile host="Electron" agent="Mozilla/5.0 (Macintosh; Intel Mac OS X 10_15_7) AppleWebKit/537.36 (KHTML, like Gecko) draw.io/28.0.6 Chrome/138.0.7204.100 Electron/37.2.3 Safari/537.36" version="28.0.6">
  <diagram name="Seite-1" id="4zwsVyWb5rbw2ARTu8vO">
    <mxGraphModel dx="1720" dy="1235" grid="1" gridSize="10" guides="1" tooltips="1" connect="1" arrows="1" fold="1" page="1" pageScale="1" pageWidth="827" pageHeight="1169" math="0" shadow="0">
      <root>
        <mxCell id="0" />
        <mxCell id="1" parent="0" />
        <mxCell id="fvMMpbKKGiped4RriF79-535" style="edgeStyle=orthogonalEdgeStyle;rounded=0;orthogonalLoop=1;jettySize=auto;html=1;exitX=0.5;exitY=0;exitDx=0;exitDy=0;entryX=0.5;entryY=1;entryDx=0;entryDy=0;" edge="1" parent="1" source="fvMMpbKKGiped4RriF79-534" target="fvMMpbKKGiped4RriF79-439">
          <mxGeometry relative="1" as="geometry" />
        </mxCell>
        <mxCell id="fvMMpbKKGiped4RriF79-534" value="" style="rounded=1;whiteSpace=wrap;html=1;fillColor=#f5f5f5;fontColor=#333333;strokeColor=#666666;" vertex="1" parent="1">
          <mxGeometry x="587.5" y="362" width="40" height="30" as="geometry" />
        </mxCell>
        <mxCell id="fvMMpbKKGiped4RriF79-533" style="edgeStyle=orthogonalEdgeStyle;rounded=0;orthogonalLoop=1;jettySize=auto;html=1;exitX=0.5;exitY=0;exitDx=0;exitDy=0;entryX=0.5;entryY=1;entryDx=0;entryDy=0;" edge="1" parent="1" source="fvMMpbKKGiped4RriF79-532" target="fvMMpbKKGiped4RriF79-392">
          <mxGeometry relative="1" as="geometry" />
        </mxCell>
        <mxCell id="fvMMpbKKGiped4RriF79-532" value="" style="rounded=1;whiteSpace=wrap;html=1;fillColor=#f5f5f5;fontColor=#333333;strokeColor=#666666;" vertex="1" parent="1">
          <mxGeometry x="502.5" y="362" width="60" height="30" as="geometry" />
        </mxCell>
        <mxCell id="fvMMpbKKGiped4RriF79-345" style="edgeStyle=orthogonalEdgeStyle;rounded=0;orthogonalLoop=1;jettySize=auto;html=1;exitX=0;exitY=0.5;exitDx=0;exitDy=0;entryX=0.796;entryY=1.031;entryDx=0;entryDy=0;entryPerimeter=0;fillColor=#ffe6cc;strokeColor=#d79b00;" edge="1" parent="1" source="fvMMpbKKGiped4RriF79-295" target="fvMMpbKKGiped4RriF79-136">
          <mxGeometry relative="1" as="geometry" />
        </mxCell>
        <mxCell id="fvMMpbKKGiped4RriF79-294" value="" style="rounded=1;whiteSpace=wrap;html=1;fillColor=#f5f5f5;fontColor=#333333;strokeColor=#666666;" vertex="1" parent="1">
          <mxGeometry x="507.5" y="852" width="50" height="50" as="geometry" />
        </mxCell>
        <mxCell id="fvMMpbKKGiped4RriF79-342" style="edgeStyle=orthogonalEdgeStyle;rounded=0;orthogonalLoop=1;jettySize=auto;html=1;exitX=0.5;exitY=0;exitDx=0;exitDy=0;entryX=0.5;entryY=1;entryDx=0;entryDy=0;" edge="1" parent="1" source="fvMMpbKKGiped4RriF79-138" target="fvMMpbKKGiped4RriF79-67">
          <mxGeometry relative="1" as="geometry">
            <mxPoint x="532.5" y="990.0000000000001" as="targetPoint" />
          </mxGeometry>
        </mxCell>
        <mxCell id="fvMMpbKKGiped4RriF79-138" value="" style="rounded=1;whiteSpace=wrap;html=1;fillColor=#f5f5f5;fontColor=#333333;strokeColor=#666666;" vertex="1" parent="1">
          <mxGeometry x="507.5" y="996" width="50" height="50" as="geometry" />
        </mxCell>
        <mxCell id="fvMMpbKKGiped4RriF79-292" style="edgeStyle=orthogonalEdgeStyle;rounded=0;orthogonalLoop=1;jettySize=auto;html=1;exitX=0.5;exitY=0;exitDx=0;exitDy=0;entryX=0.5;entryY=1;entryDx=0;entryDy=0;fillColor=#dae8fc;strokeColor=#6c8ebf;" edge="1" parent="1" source="fvMMpbKKGiped4RriF79-137" target="fvMMpbKKGiped4RriF79-136">
          <mxGeometry relative="1" as="geometry">
            <Array as="points">
              <mxPoint x="235" y="870" />
              <mxPoint x="320" y="870" />
            </Array>
          </mxGeometry>
        </mxCell>
        <mxCell id="fvMMpbKKGiped4RriF79-137" value="" style="rounded=1;whiteSpace=wrap;html=1;fillColor=#f5f5f5;fontColor=#333333;strokeColor=#666666;" vertex="1" parent="1">
          <mxGeometry x="165" y="882" width="140" height="30" as="geometry" />
        </mxCell>
        <mxCell id="fvMMpbKKGiped4RriF79-228" style="edgeStyle=orthogonalEdgeStyle;rounded=0;orthogonalLoop=1;jettySize=auto;html=1;exitX=0.5;exitY=0;exitDx=0;exitDy=0;entryX=0.5;entryY=1;entryDx=0;entryDy=0;" edge="1" parent="1" source="fvMMpbKKGiped4RriF79-136" target="fvMMpbKKGiped4RriF79-227">
          <mxGeometry relative="1" as="geometry" />
        </mxCell>
        <mxCell id="fvMMpbKKGiped4RriF79-136" value="" style="rounded=1;whiteSpace=wrap;html=1;fillColor=#f5f5f5;fontColor=#333333;strokeColor=#666666;" vertex="1" parent="1">
          <mxGeometry x="210" y="810" width="220" height="30" as="geometry" />
        </mxCell>
        <mxCell id="fvMMpbKKGiped4RriF79-1" value="" style="rounded=1;whiteSpace=wrap;html=1;fillColor=#004C99;strokeColor=#333333;" vertex="1" parent="1">
          <mxGeometry x="175" y="892" width="10" height="10" as="geometry" />
        </mxCell>
        <mxCell id="fvMMpbKKGiped4RriF79-2" value="" style="rounded=1;whiteSpace=wrap;html=1;fillColor=#004C99;strokeColor=#333333;" vertex="1" parent="1">
          <mxGeometry x="185" y="892" width="10" height="10" as="geometry" />
        </mxCell>
        <mxCell id="fvMMpbKKGiped4RriF79-3" value="" style="rounded=1;whiteSpace=wrap;html=1;fillColor=#004C99;strokeColor=#333333;" vertex="1" parent="1">
          <mxGeometry x="195" y="892" width="10" height="10" as="geometry" />
        </mxCell>
        <mxCell id="fvMMpbKKGiped4RriF79-4" value="" style="rounded=1;whiteSpace=wrap;html=1;fillColor=#004C99;strokeColor=#333333;" vertex="1" parent="1">
          <mxGeometry x="195" y="892" width="10" height="10" as="geometry" />
        </mxCell>
        <mxCell id="fvMMpbKKGiped4RriF79-5" value="" style="rounded=1;whiteSpace=wrap;html=1;fillColor=#004C99;strokeColor=#333333;" vertex="1" parent="1">
          <mxGeometry x="205" y="892" width="10" height="10" as="geometry" />
        </mxCell>
        <mxCell id="fvMMpbKKGiped4RriF79-6" value="" style="rounded=1;whiteSpace=wrap;html=1;fillColor=#004C99;strokeColor=#333333;" vertex="1" parent="1">
          <mxGeometry x="215" y="892" width="10" height="10" as="geometry" />
        </mxCell>
        <mxCell id="fvMMpbKKGiped4RriF79-7" value="" style="rounded=1;whiteSpace=wrap;html=1;fillColor=#004C99;strokeColor=#333333;" vertex="1" parent="1">
          <mxGeometry x="225" y="892" width="10" height="10" as="geometry" />
        </mxCell>
        <mxCell id="fvMMpbKKGiped4RriF79-8" value="" style="rounded=1;whiteSpace=wrap;html=1;fillColor=#004C99;strokeColor=#333333;" vertex="1" parent="1">
          <mxGeometry x="235" y="892" width="10" height="10" as="geometry" />
        </mxCell>
        <mxCell id="fvMMpbKKGiped4RriF79-9" value="" style="rounded=1;whiteSpace=wrap;html=1;fillColor=#004C99;strokeColor=#333333;" vertex="1" parent="1">
          <mxGeometry x="235" y="892" width="10" height="10" as="geometry" />
        </mxCell>
        <mxCell id="fvMMpbKKGiped4RriF79-10" value="" style="rounded=1;whiteSpace=wrap;html=1;fillColor=#004C99;strokeColor=#333333;" vertex="1" parent="1">
          <mxGeometry x="245" y="892" width="10" height="10" as="geometry" />
        </mxCell>
        <mxCell id="fvMMpbKKGiped4RriF79-11" value="" style="rounded=1;whiteSpace=wrap;html=1;fillColor=#004C99;strokeColor=#333333;" vertex="1" parent="1">
          <mxGeometry x="255" y="892" width="10" height="10" as="geometry" />
        </mxCell>
        <mxCell id="fvMMpbKKGiped4RriF79-12" value="" style="rounded=1;whiteSpace=wrap;html=1;fillColor=#004C99;strokeColor=#333333;" vertex="1" parent="1">
          <mxGeometry x="265" y="892" width="10" height="10" as="geometry" />
        </mxCell>
        <mxCell id="fvMMpbKKGiped4RriF79-13" value="" style="rounded=1;whiteSpace=wrap;html=1;fillColor=#004C99;strokeColor=#333333;" vertex="1" parent="1">
          <mxGeometry x="275" y="892" width="10" height="10" as="geometry" />
        </mxCell>
        <mxCell id="fvMMpbKKGiped4RriF79-14" value="" style="rounded=1;whiteSpace=wrap;html=1;fillColor=#004C99;strokeColor=#333333;" vertex="1" parent="1">
          <mxGeometry x="275" y="892" width="10" height="10" as="geometry" />
        </mxCell>
        <mxCell id="fvMMpbKKGiped4RriF79-15" value="" style="rounded=1;whiteSpace=wrap;html=1;fillColor=#004C99;strokeColor=#333333;" vertex="1" parent="1">
          <mxGeometry x="285" y="892" width="10" height="10" as="geometry" />
        </mxCell>
        <mxCell id="fvMMpbKKGiped4RriF79-47" value="" style="rounded=1;whiteSpace=wrap;html=1;fillColor=#FF8000;strokeColor=#333333;" vertex="1" parent="1">
          <mxGeometry x="512.5" y="1031" width="10" height="10" as="geometry" />
        </mxCell>
        <mxCell id="fvMMpbKKGiped4RriF79-48" value="" style="rounded=1;whiteSpace=wrap;html=1;fillColor=#FF8000;strokeColor=#333333;" vertex="1" parent="1">
          <mxGeometry x="522.5" y="1031" width="10" height="10" as="geometry" />
        </mxCell>
        <mxCell id="fvMMpbKKGiped4RriF79-49" value="" style="rounded=1;whiteSpace=wrap;html=1;fillColor=#FF8000;strokeColor=#333333;" vertex="1" parent="1">
          <mxGeometry x="512.5" y="1021" width="10" height="10" as="geometry" />
        </mxCell>
        <mxCell id="fvMMpbKKGiped4RriF79-50" value="" style="rounded=1;whiteSpace=wrap;html=1;fillColor=#FF8000;strokeColor=#333333;" vertex="1" parent="1">
          <mxGeometry x="512.5" y="1021" width="10" height="10" as="geometry" />
        </mxCell>
        <mxCell id="fvMMpbKKGiped4RriF79-51" value="" style="rounded=1;whiteSpace=wrap;html=1;fillColor=#FF8000;strokeColor=#333333;" vertex="1" parent="1">
          <mxGeometry x="522.5" y="1021" width="10" height="10" as="geometry" />
        </mxCell>
        <mxCell id="fvMMpbKKGiped4RriF79-52" value="" style="rounded=1;whiteSpace=wrap;html=1;fillColor=#FF8000;strokeColor=#333333;" vertex="1" parent="1">
          <mxGeometry x="532.5" y="1031" width="10" height="10" as="geometry" />
        </mxCell>
        <mxCell id="fvMMpbKKGiped4RriF79-53" value="" style="rounded=1;whiteSpace=wrap;html=1;fillColor=#FF8000;strokeColor=#333333;" vertex="1" parent="1">
          <mxGeometry x="542.5" y="1031" width="10" height="10" as="geometry" />
        </mxCell>
        <mxCell id="fvMMpbKKGiped4RriF79-54" value="" style="rounded=1;whiteSpace=wrap;html=1;fillColor=#FF8000;strokeColor=#333333;" vertex="1" parent="1">
          <mxGeometry x="532.5" y="1021" width="10" height="10" as="geometry" />
        </mxCell>
        <mxCell id="fvMMpbKKGiped4RriF79-55" value="" style="rounded=1;whiteSpace=wrap;html=1;fillColor=#FF8000;strokeColor=#333333;" vertex="1" parent="1">
          <mxGeometry x="532.5" y="1021" width="10" height="10" as="geometry" />
        </mxCell>
        <mxCell id="fvMMpbKKGiped4RriF79-56" value="" style="rounded=1;whiteSpace=wrap;html=1;fillColor=#FF8000;strokeColor=#333333;" vertex="1" parent="1">
          <mxGeometry x="542.5" y="1021" width="10" height="10" as="geometry" />
        </mxCell>
        <mxCell id="fvMMpbKKGiped4RriF79-57" value="" style="rounded=1;whiteSpace=wrap;html=1;fillColor=#FF8000;strokeColor=#333333;" vertex="1" parent="1">
          <mxGeometry x="512.5" y="1011" width="10" height="10" as="geometry" />
        </mxCell>
        <mxCell id="fvMMpbKKGiped4RriF79-58" value="" style="rounded=1;whiteSpace=wrap;html=1;fillColor=#FF8000;strokeColor=#333333;" vertex="1" parent="1">
          <mxGeometry x="522.5" y="1011" width="10" height="10" as="geometry" />
        </mxCell>
        <mxCell id="fvMMpbKKGiped4RriF79-59" value="" style="rounded=1;whiteSpace=wrap;html=1;fillColor=#FF8000;strokeColor=#333333;" vertex="1" parent="1">
          <mxGeometry x="512.5" y="1001" width="10" height="10" as="geometry" />
        </mxCell>
        <mxCell id="fvMMpbKKGiped4RriF79-60" value="" style="rounded=1;whiteSpace=wrap;html=1;fillColor=#FF8000;strokeColor=#333333;" vertex="1" parent="1">
          <mxGeometry x="512.5" y="1001" width="10" height="10" as="geometry" />
        </mxCell>
        <mxCell id="fvMMpbKKGiped4RriF79-61" value="" style="rounded=1;whiteSpace=wrap;html=1;fillColor=#FF8000;strokeColor=#333333;" vertex="1" parent="1">
          <mxGeometry x="522.5" y="1001" width="10" height="10" as="geometry" />
        </mxCell>
        <mxCell id="fvMMpbKKGiped4RriF79-62" value="" style="rounded=1;whiteSpace=wrap;html=1;fillColor=#FF8000;strokeColor=#333333;" vertex="1" parent="1">
          <mxGeometry x="532.5" y="1011" width="10" height="10" as="geometry" />
        </mxCell>
        <mxCell id="fvMMpbKKGiped4RriF79-63" value="" style="rounded=1;whiteSpace=wrap;html=1;fillColor=#FF8000;strokeColor=#333333;" vertex="1" parent="1">
          <mxGeometry x="542.5" y="1011" width="10" height="10" as="geometry" />
        </mxCell>
        <mxCell id="fvMMpbKKGiped4RriF79-64" value="" style="rounded=1;whiteSpace=wrap;html=1;fillColor=#FF8000;strokeColor=#333333;" vertex="1" parent="1">
          <mxGeometry x="532.5" y="1001" width="10" height="10" as="geometry" />
        </mxCell>
        <mxCell id="fvMMpbKKGiped4RriF79-65" value="" style="rounded=1;whiteSpace=wrap;html=1;fillColor=#FF8000;strokeColor=#333333;" vertex="1" parent="1">
          <mxGeometry x="532.5" y="1001" width="10" height="10" as="geometry" />
        </mxCell>
        <mxCell id="fvMMpbKKGiped4RriF79-66" value="" style="rounded=1;whiteSpace=wrap;html=1;fillColor=#FF8000;strokeColor=#333333;" vertex="1" parent="1">
          <mxGeometry x="542.5" y="1001" width="10" height="10" as="geometry" />
        </mxCell>
        <mxCell id="fvMMpbKKGiped4RriF79-225" style="edgeStyle=orthogonalEdgeStyle;rounded=0;orthogonalLoop=1;jettySize=auto;html=1;exitX=0.5;exitY=0;exitDx=0;exitDy=0;entryX=0.5;entryY=1;entryDx=0;entryDy=0;" edge="1" parent="1" source="fvMMpbKKGiped4RriF79-67" target="fvMMpbKKGiped4RriF79-222">
          <mxGeometry relative="1" as="geometry" />
        </mxCell>
        <mxCell id="fvMMpbKKGiped4RriF79-446" style="edgeStyle=orthogonalEdgeStyle;rounded=0;orthogonalLoop=1;jettySize=auto;html=1;exitX=0.5;exitY=0;exitDx=0;exitDy=0;entryX=0.5;entryY=1;entryDx=0;entryDy=0;" edge="1" parent="1" source="fvMMpbKKGiped4RriF79-67" target="fvMMpbKKGiped4RriF79-370">
          <mxGeometry relative="1" as="geometry">
            <Array as="points">
              <mxPoint x="532" y="950" />
              <mxPoint x="571" y="950" />
              <mxPoint x="571" y="320" />
              <mxPoint x="532" y="320" />
            </Array>
          </mxGeometry>
        </mxCell>
        <mxCell id="fvMMpbKKGiped4RriF79-67" value="Encoder" style="rounded=0;whiteSpace=wrap;html=1;fontSize=9;fillColor=#CC0000;strokeColor=#000000;fontColor=#FFFFFF;" vertex="1" parent="1">
          <mxGeometry x="512.5" y="955" width="40" height="20" as="geometry" />
        </mxCell>
        <mxCell id="fvMMpbKKGiped4RriF79-89" value="" style="rounded=1;whiteSpace=wrap;html=1;fillColor=#FF8000;strokeColor=#333333;" vertex="1" parent="1">
          <mxGeometry x="512.5" y="887" width="10" height="10" as="geometry" />
        </mxCell>
        <mxCell id="fvMMpbKKGiped4RriF79-90" value="" style="rounded=1;whiteSpace=wrap;html=1;fillColor=#999999;strokeColor=#333333;fontColor=#333333;" vertex="1" parent="1">
          <mxGeometry x="522.5" y="887" width="10" height="10" as="geometry" />
        </mxCell>
        <mxCell id="fvMMpbKKGiped4RriF79-91" value="" style="rounded=1;whiteSpace=wrap;html=1;fillColor=#ffe6cc;strokeColor=#333333;" vertex="1" parent="1">
          <mxGeometry x="512.5" y="877" width="10" height="10" as="geometry" />
        </mxCell>
        <mxCell id="fvMMpbKKGiped4RriF79-92" value="" style="rounded=1;whiteSpace=wrap;html=1;fillColor=#999999;strokeColor=#333333;fontColor=#333333;" vertex="1" parent="1">
          <mxGeometry x="512.5" y="877" width="10" height="10" as="geometry" />
        </mxCell>
        <mxCell id="fvMMpbKKGiped4RriF79-93" value="" style="rounded=1;whiteSpace=wrap;html=1;fillColor=#FF8000;strokeColor=#333333;" vertex="1" parent="1">
          <mxGeometry x="522.5" y="877" width="10" height="10" as="geometry" />
        </mxCell>
        <mxCell id="fvMMpbKKGiped4RriF79-94" value="" style="rounded=1;whiteSpace=wrap;html=1;fillColor=#999999;strokeColor=#333333;fontColor=#333333;" vertex="1" parent="1">
          <mxGeometry x="532.5" y="887" width="10" height="10" as="geometry" />
        </mxCell>
        <mxCell id="fvMMpbKKGiped4RriF79-95" value="" style="rounded=1;whiteSpace=wrap;html=1;fillColor=#999999;strokeColor=#333333;fontColor=#333333;" vertex="1" parent="1">
          <mxGeometry x="542.5" y="887" width="10" height="10" as="geometry" />
        </mxCell>
        <mxCell id="fvMMpbKKGiped4RriF79-96" value="" style="rounded=1;whiteSpace=wrap;html=1;fillColor=#ffe6cc;strokeColor=#333333;" vertex="1" parent="1">
          <mxGeometry x="532.5" y="877" width="10" height="10" as="geometry" />
        </mxCell>
        <mxCell id="fvMMpbKKGiped4RriF79-97" value="" style="rounded=1;whiteSpace=wrap;html=1;fillColor=#999999;strokeColor=#333333;fontColor=#333333;" vertex="1" parent="1">
          <mxGeometry x="532.5" y="877" width="10" height="10" as="geometry" />
        </mxCell>
        <mxCell id="fvMMpbKKGiped4RriF79-98" value="" style="rounded=1;whiteSpace=wrap;html=1;fillColor=#FF8000;strokeColor=#333333;" vertex="1" parent="1">
          <mxGeometry x="542.5" y="877" width="10" height="10" as="geometry" />
        </mxCell>
        <mxCell id="fvMMpbKKGiped4RriF79-99" value="" style="rounded=1;whiteSpace=wrap;html=1;fillColor=#FF8000;strokeColor=#333333;" vertex="1" parent="1">
          <mxGeometry x="512.5" y="867" width="10" height="10" as="geometry" />
        </mxCell>
        <mxCell id="fvMMpbKKGiped4RriF79-100" value="" style="rounded=1;whiteSpace=wrap;html=1;fillColor=#999999;strokeColor=#333333;fontColor=#333333;" vertex="1" parent="1">
          <mxGeometry x="522.5" y="867" width="10" height="10" as="geometry" />
        </mxCell>
        <mxCell id="fvMMpbKKGiped4RriF79-101" value="" style="rounded=1;whiteSpace=wrap;html=1;fillColor=#f5f5f5;strokeColor=#333333;fontColor=#333333;" vertex="1" parent="1">
          <mxGeometry x="512.5" y="857" width="10" height="10" as="geometry" />
        </mxCell>
        <mxCell id="fvMMpbKKGiped4RriF79-102" value="" style="rounded=1;whiteSpace=wrap;html=1;fillColor=#999999;strokeColor=#333333;fontColor=#333333;" vertex="1" parent="1">
          <mxGeometry x="512.5" y="857" width="10" height="10" as="geometry" />
        </mxCell>
        <mxCell id="fvMMpbKKGiped4RriF79-103" value="" style="rounded=1;whiteSpace=wrap;html=1;fillColor=#999999;strokeColor=#333333;fontColor=#333333;" vertex="1" parent="1">
          <mxGeometry x="522.5" y="857" width="10" height="10" as="geometry" />
        </mxCell>
        <mxCell id="fvMMpbKKGiped4RriF79-104" value="" style="rounded=1;whiteSpace=wrap;html=1;fillColor=#999999;strokeColor=#333333;fontColor=#333333;" vertex="1" parent="1">
          <mxGeometry x="532.5" y="867" width="10" height="10" as="geometry" />
        </mxCell>
        <mxCell id="fvMMpbKKGiped4RriF79-105" value="" style="rounded=1;whiteSpace=wrap;html=1;fillColor=#999999;strokeColor=#333333;fontColor=#333333;" vertex="1" parent="1">
          <mxGeometry x="542.5" y="867" width="10" height="10" as="geometry" />
        </mxCell>
        <mxCell id="fvMMpbKKGiped4RriF79-106" value="" style="rounded=1;whiteSpace=wrap;html=1;fillColor=#ffe6cc;strokeColor=#333333;" vertex="1" parent="1">
          <mxGeometry x="532.5" y="857" width="10" height="10" as="geometry" />
        </mxCell>
        <mxCell id="fvMMpbKKGiped4RriF79-107" value="" style="rounded=1;whiteSpace=wrap;html=1;fillColor=#FF8000;strokeColor=#333333;" vertex="1" parent="1">
          <mxGeometry x="532.5" y="857" width="10" height="10" as="geometry" />
        </mxCell>
        <mxCell id="fvMMpbKKGiped4RriF79-108" value="" style="rounded=1;whiteSpace=wrap;html=1;fillColor=#999999;strokeColor=#333333;fontColor=#333333;" vertex="1" parent="1">
          <mxGeometry x="542.5" y="857" width="10" height="10" as="geometry" />
        </mxCell>
        <mxCell id="fvMMpbKKGiped4RriF79-109" value="" style="rounded=1;whiteSpace=wrap;html=1;fillColor=#004C99;strokeColor=#333333;" vertex="1" parent="1">
          <mxGeometry x="220" y="820" width="10" height="10" as="geometry" />
        </mxCell>
        <mxCell id="fvMMpbKKGiped4RriF79-110" value="" style="rounded=1;whiteSpace=wrap;html=1;fillColor=#004C99;strokeColor=#333333;" vertex="1" parent="1">
          <mxGeometry x="230" y="820" width="10" height="10" as="geometry" />
        </mxCell>
        <mxCell id="fvMMpbKKGiped4RriF79-111" value="" style="rounded=1;whiteSpace=wrap;html=1;fillColor=#004C99;strokeColor=#333333;" vertex="1" parent="1">
          <mxGeometry x="240" y="820" width="10" height="10" as="geometry" />
        </mxCell>
        <mxCell id="fvMMpbKKGiped4RriF79-112" value="" style="rounded=1;whiteSpace=wrap;html=1;fillColor=#004C99;strokeColor=#333333;" vertex="1" parent="1">
          <mxGeometry x="240" y="820" width="10" height="10" as="geometry" />
        </mxCell>
        <mxCell id="fvMMpbKKGiped4RriF79-124" value="" style="rounded=1;whiteSpace=wrap;html=1;fillColor=#FF8000;strokeColor=#333333;" vertex="1" parent="1">
          <mxGeometry x="250" y="820" width="10" height="10" as="geometry" />
        </mxCell>
        <mxCell id="fvMMpbKKGiped4RriF79-125" value="" style="rounded=1;whiteSpace=wrap;html=1;fillColor=#FF8000;strokeColor=#333333;" vertex="1" parent="1">
          <mxGeometry x="260" y="820" width="10" height="10" as="geometry" />
        </mxCell>
        <mxCell id="fvMMpbKKGiped4RriF79-126" value="" style="rounded=1;whiteSpace=wrap;html=1;fillColor=#FF8000;strokeColor=#333333;" vertex="1" parent="1">
          <mxGeometry x="270" y="820" width="10" height="10" as="geometry" />
        </mxCell>
        <mxCell id="fvMMpbKKGiped4RriF79-127" value="" style="rounded=1;whiteSpace=wrap;html=1;fillColor=#FF8000;strokeColor=#333333;" vertex="1" parent="1">
          <mxGeometry x="270" y="820" width="10" height="10" as="geometry" />
        </mxCell>
        <mxCell id="fvMMpbKKGiped4RriF79-128" value="" style="rounded=1;whiteSpace=wrap;html=1;fillColor=#FF8000;strokeColor=#333333;" vertex="1" parent="1">
          <mxGeometry x="280" y="820" width="10" height="10" as="geometry" />
        </mxCell>
        <mxCell id="fvMMpbKKGiped4RriF79-129" value="" style="rounded=1;whiteSpace=wrap;html=1;fillColor=#FF8000;strokeColor=#333333;" vertex="1" parent="1">
          <mxGeometry x="290" y="820" width="10" height="10" as="geometry" />
        </mxCell>
        <mxCell id="fvMMpbKKGiped4RriF79-130" value="" style="rounded=1;whiteSpace=wrap;html=1;fillColor=#FF8000;strokeColor=#333333;" vertex="1" parent="1">
          <mxGeometry x="290" y="820" width="10" height="10" as="geometry" />
        </mxCell>
        <mxCell id="fvMMpbKKGiped4RriF79-113" value="" style="rounded=1;whiteSpace=wrap;html=1;fillColor=#004C99;strokeColor=#333333;" vertex="1" parent="1">
          <mxGeometry x="300" y="820" width="10" height="10" as="geometry" />
        </mxCell>
        <mxCell id="fvMMpbKKGiped4RriF79-114" value="" style="rounded=1;whiteSpace=wrap;html=1;fillColor=#004C99;strokeColor=#333333;" vertex="1" parent="1">
          <mxGeometry x="310" y="820" width="10" height="10" as="geometry" />
        </mxCell>
        <mxCell id="fvMMpbKKGiped4RriF79-115" value="" style="rounded=1;whiteSpace=wrap;html=1;fillColor=#004C99;strokeColor=#333333;" vertex="1" parent="1">
          <mxGeometry x="320" y="820" width="10" height="10" as="geometry" />
        </mxCell>
        <mxCell id="fvMMpbKKGiped4RriF79-116" value="" style="rounded=1;whiteSpace=wrap;html=1;fillColor=#004C99;strokeColor=#333333;" vertex="1" parent="1">
          <mxGeometry x="330" y="820" width="10" height="10" as="geometry" />
        </mxCell>
        <mxCell id="fvMMpbKKGiped4RriF79-117" value="" style="rounded=1;whiteSpace=wrap;html=1;fillColor=#004C99;strokeColor=#333333;" vertex="1" parent="1">
          <mxGeometry x="330" y="820" width="10" height="10" as="geometry" />
        </mxCell>
        <mxCell id="fvMMpbKKGiped4RriF79-118" value="" style="rounded=1;whiteSpace=wrap;html=1;fillColor=#004C99;strokeColor=#333333;" vertex="1" parent="1">
          <mxGeometry x="340" y="820" width="10" height="10" as="geometry" />
        </mxCell>
        <mxCell id="fvMMpbKKGiped4RriF79-119" value="" style="rounded=1;whiteSpace=wrap;html=1;fillColor=#004C99;strokeColor=#333333;" vertex="1" parent="1">
          <mxGeometry x="350" y="820" width="10" height="10" as="geometry" />
        </mxCell>
        <mxCell id="fvMMpbKKGiped4RriF79-120" value="" style="rounded=1;whiteSpace=wrap;html=1;fillColor=#004C99;strokeColor=#333333;" vertex="1" parent="1">
          <mxGeometry x="360" y="820" width="10" height="10" as="geometry" />
        </mxCell>
        <mxCell id="fvMMpbKKGiped4RriF79-121" value="" style="rounded=1;whiteSpace=wrap;html=1;fillColor=#004C99;strokeColor=#333333;" vertex="1" parent="1">
          <mxGeometry x="400" y="820" width="10" height="10" as="geometry" />
        </mxCell>
        <mxCell id="fvMMpbKKGiped4RriF79-122" value="" style="rounded=1;whiteSpace=wrap;html=1;fillColor=#004C99;strokeColor=#333333;" vertex="1" parent="1">
          <mxGeometry x="400" y="820" width="10" height="10" as="geometry" />
        </mxCell>
        <mxCell id="fvMMpbKKGiped4RriF79-123" value="" style="rounded=1;whiteSpace=wrap;html=1;fillColor=#004C99;strokeColor=#333333;" vertex="1" parent="1">
          <mxGeometry x="410" y="820" width="10" height="10" as="geometry" />
        </mxCell>
        <mxCell id="fvMMpbKKGiped4RriF79-131" value="" style="rounded=1;whiteSpace=wrap;html=1;fillColor=#FF8000;strokeColor=#333333;" vertex="1" parent="1">
          <mxGeometry x="370" y="820" width="10" height="10" as="geometry" />
        </mxCell>
        <mxCell id="fvMMpbKKGiped4RriF79-132" value="" style="rounded=1;whiteSpace=wrap;html=1;fillColor=#FF8000;strokeColor=#333333;" vertex="1" parent="1">
          <mxGeometry x="370" y="820" width="10" height="10" as="geometry" />
        </mxCell>
        <mxCell id="fvMMpbKKGiped4RriF79-133" value="" style="rounded=1;whiteSpace=wrap;html=1;fillColor=#FF8000;strokeColor=#333333;" vertex="1" parent="1">
          <mxGeometry x="380" y="820" width="10" height="10" as="geometry" />
        </mxCell>
        <mxCell id="fvMMpbKKGiped4RriF79-134" value="" style="rounded=1;whiteSpace=wrap;html=1;fillColor=#FF8000;strokeColor=#333333;" vertex="1" parent="1">
          <mxGeometry x="390" y="820" width="10" height="10" as="geometry" />
        </mxCell>
        <mxCell id="fvMMpbKKGiped4RriF79-135" value="" style="rounded=1;whiteSpace=wrap;html=1;fillColor=#FF8000;strokeColor=#333333;" vertex="1" parent="1">
          <mxGeometry x="390" y="820" width="10" height="10" as="geometry" />
        </mxCell>
        <mxCell id="fvMMpbKKGiped4RriF79-143" style="edgeStyle=orthogonalEdgeStyle;rounded=0;orthogonalLoop=1;jettySize=auto;html=1;exitX=0.5;exitY=0;exitDx=0;exitDy=0;" edge="1" parent="1" source="fvMMpbKKGiped4RriF79-139">
          <mxGeometry relative="1" as="geometry">
            <mxPoint x="319.86956521739137" y="710" as="targetPoint" />
          </mxGeometry>
        </mxCell>
        <mxCell id="fvMMpbKKGiped4RriF79-139" value="Chunker" style="rounded=0;whiteSpace=wrap;html=1;fontSize=9;fillColor=#4C0099;strokeColor=#000000;fontColor=#FFFFFF;" vertex="1" parent="1">
          <mxGeometry x="220" y="730" width="200" height="20" as="geometry" />
        </mxCell>
        <mxCell id="fvMMpbKKGiped4RriF79-140" style="edgeStyle=orthogonalEdgeStyle;rounded=0;orthogonalLoop=1;jettySize=auto;html=1;exitX=0.5;exitY=0;exitDx=0;exitDy=0;entryX=0.113;entryY=0.993;entryDx=0;entryDy=0;entryPerimeter=0;fillColor=#dae8fc;strokeColor=#6c8ebf;" edge="1" parent="1" source="fvMMpbKKGiped4RriF79-137" target="fvMMpbKKGiped4RriF79-136">
          <mxGeometry relative="1" as="geometry" />
        </mxCell>
        <mxCell id="fvMMpbKKGiped4RriF79-173" style="edgeStyle=orthogonalEdgeStyle;rounded=0;orthogonalLoop=1;jettySize=auto;html=1;exitX=0.5;exitY=0;exitDx=0;exitDy=0;entryX=0.5;entryY=1;entryDx=0;entryDy=0;" edge="1" parent="1" source="fvMMpbKKGiped4RriF79-144" target="fvMMpbKKGiped4RriF79-172">
          <mxGeometry relative="1" as="geometry" />
        </mxCell>
        <mxCell id="fvMMpbKKGiped4RriF79-144" value="" style="rounded=1;whiteSpace=wrap;html=1;fillColor=#f5f5f5;fontColor=#333333;strokeColor=#666666;" vertex="1" parent="1">
          <mxGeometry x="260" y="680" width="120" height="30" as="geometry" />
        </mxCell>
        <mxCell id="fvMMpbKKGiped4RriF79-146" value="" style="rounded=1;whiteSpace=wrap;html=1;fillColor=#004C99;strokeColor=#333333;" vertex="1" parent="1">
          <mxGeometry x="265" y="690" width="10" height="10" as="geometry" />
        </mxCell>
        <mxCell id="fvMMpbKKGiped4RriF79-147" value="" style="rounded=1;whiteSpace=wrap;html=1;fillColor=#004C99;strokeColor=#333333;" vertex="1" parent="1">
          <mxGeometry x="275" y="690" width="10" height="10" as="geometry" />
        </mxCell>
        <mxCell id="fvMMpbKKGiped4RriF79-148" value="" style="rounded=1;whiteSpace=wrap;html=1;fillColor=#004C99;strokeColor=#333333;" vertex="1" parent="1">
          <mxGeometry x="275" y="690" width="10" height="10" as="geometry" />
        </mxCell>
        <mxCell id="fvMMpbKKGiped4RriF79-149" value="" style="rounded=1;whiteSpace=wrap;html=1;fillColor=#FF8000;strokeColor=#333333;" vertex="1" parent="1">
          <mxGeometry x="285" y="690" width="10" height="10" as="geometry" />
        </mxCell>
        <mxCell id="fvMMpbKKGiped4RriF79-150" value="" style="rounded=1;whiteSpace=wrap;html=1;fillColor=#FF8000;strokeColor=#333333;" vertex="1" parent="1">
          <mxGeometry x="295" y="690" width="10" height="10" as="geometry" />
        </mxCell>
        <mxCell id="fvMMpbKKGiped4RriF79-151" value="" style="rounded=1;whiteSpace=wrap;html=1;fillColor=#FF8000;strokeColor=#333333;" vertex="1" parent="1">
          <mxGeometry x="305" y="690" width="10" height="10" as="geometry" />
        </mxCell>
        <mxCell id="fvMMpbKKGiped4RriF79-152" value="" style="rounded=1;whiteSpace=wrap;html=1;fillColor=#FF8000;strokeColor=#333333;" vertex="1" parent="1">
          <mxGeometry x="305" y="690" width="10" height="10" as="geometry" />
        </mxCell>
        <mxCell id="fvMMpbKKGiped4RriF79-153" value="" style="rounded=1;whiteSpace=wrap;html=1;fillColor=#FF8000;strokeColor=#333333;" vertex="1" parent="1">
          <mxGeometry x="315" y="690" width="10" height="10" as="geometry" />
        </mxCell>
        <mxCell id="fvMMpbKKGiped4RriF79-161" value="" style="rounded=1;whiteSpace=wrap;html=1;fillColor=#004C99;strokeColor=#333333;" vertex="1" parent="1">
          <mxGeometry x="325" y="690" width="10" height="10" as="geometry" />
        </mxCell>
        <mxCell id="fvMMpbKKGiped4RriF79-162" value="" style="rounded=1;whiteSpace=wrap;html=1;fillColor=#004C99;strokeColor=#333333;" vertex="1" parent="1">
          <mxGeometry x="335" y="690" width="10" height="10" as="geometry" />
        </mxCell>
        <mxCell id="fvMMpbKKGiped4RriF79-163" value="" style="rounded=1;whiteSpace=wrap;html=1;fillColor=#004C99;strokeColor=#333333;" vertex="1" parent="1">
          <mxGeometry x="345" y="690" width="10" height="10" as="geometry" />
        </mxCell>
        <mxCell id="fvMMpbKKGiped4RriF79-166" value="" style="rounded=1;whiteSpace=wrap;html=1;fillColor=#004C99;strokeColor=#333333;" vertex="1" parent="1">
          <mxGeometry x="365" y="690" width="10" height="10" as="geometry" />
        </mxCell>
        <mxCell id="fvMMpbKKGiped4RriF79-167" value="" style="rounded=1;whiteSpace=wrap;html=1;fillColor=#FF8000;strokeColor=#333333;" vertex="1" parent="1">
          <mxGeometry x="355" y="690" width="10" height="10" as="geometry" />
        </mxCell>
        <mxCell id="fvMMpbKKGiped4RriF79-168" value="" style="rounded=1;whiteSpace=wrap;html=1;fillColor=#FF8000;strokeColor=#333333;" vertex="1" parent="1">
          <mxGeometry x="355" y="690" width="10" height="10" as="geometry" />
        </mxCell>
        <mxCell id="fvMMpbKKGiped4RriF79-189" style="edgeStyle=orthogonalEdgeStyle;rounded=0;orthogonalLoop=1;jettySize=auto;html=1;exitX=0.5;exitY=0;exitDx=0;exitDy=0;entryX=0.5;entryY=1;entryDx=0;entryDy=0;" edge="1" parent="1" source="fvMMpbKKGiped4RriF79-172" target="fvMMpbKKGiped4RriF79-174">
          <mxGeometry relative="1" as="geometry">
            <mxPoint x="320" y="600" as="sourcePoint" />
          </mxGeometry>
        </mxCell>
        <mxCell id="fvMMpbKKGiped4RriF79-172" value="Main Module" style="rounded=0;whiteSpace=wrap;html=1;fontSize=9;fillColor=#99004D;strokeColor=#000000;fontColor=#FFFFFF;" vertex="1" parent="1">
          <mxGeometry x="270" y="610" width="100" height="50" as="geometry" />
        </mxCell>
        <mxCell id="fvMMpbKKGiped4RriF79-192" style="edgeStyle=orthogonalEdgeStyle;rounded=0;orthogonalLoop=1;jettySize=auto;html=1;exitX=0.5;exitY=0;exitDx=0;exitDy=0;entryX=0.5;entryY=1;entryDx=0;entryDy=0;" edge="1" parent="1" source="fvMMpbKKGiped4RriF79-174" target="fvMMpbKKGiped4RriF79-191">
          <mxGeometry relative="1" as="geometry" />
        </mxCell>
        <mxCell id="fvMMpbKKGiped4RriF79-174" value="" style="rounded=1;whiteSpace=wrap;html=1;fillColor=#f5f5f5;fontColor=#333333;strokeColor=#666666;" vertex="1" parent="1">
          <mxGeometry x="260" y="557" width="120" height="30" as="geometry" />
        </mxCell>
        <mxCell id="fvMMpbKKGiped4RriF79-175" value="" style="rounded=1;whiteSpace=wrap;html=1;fillColor=#004C99;strokeColor=#333333;" vertex="1" parent="1">
          <mxGeometry x="265" y="567" width="10" height="10" as="geometry" />
        </mxCell>
        <mxCell id="fvMMpbKKGiped4RriF79-176" value="" style="rounded=1;whiteSpace=wrap;html=1;fillColor=#004C99;strokeColor=#333333;" vertex="1" parent="1">
          <mxGeometry x="275" y="567" width="10" height="10" as="geometry" />
        </mxCell>
        <mxCell id="fvMMpbKKGiped4RriF79-177" value="" style="rounded=1;whiteSpace=wrap;html=1;fillColor=#004C99;strokeColor=#333333;" vertex="1" parent="1">
          <mxGeometry x="275" y="567" width="10" height="10" as="geometry" />
        </mxCell>
        <mxCell id="fvMMpbKKGiped4RriF79-178" value="" style="rounded=1;whiteSpace=wrap;html=1;fillColor=#FF8000;strokeColor=#333333;" vertex="1" parent="1">
          <mxGeometry x="285" y="567" width="10" height="10" as="geometry" />
        </mxCell>
        <mxCell id="fvMMpbKKGiped4RriF79-179" value="" style="rounded=1;whiteSpace=wrap;html=1;fillColor=#FF8000;strokeColor=#333333;" vertex="1" parent="1">
          <mxGeometry x="295" y="567" width="10" height="10" as="geometry" />
        </mxCell>
        <mxCell id="fvMMpbKKGiped4RriF79-180" value="" style="rounded=1;whiteSpace=wrap;html=1;fillColor=#FF8000;strokeColor=#333333;" vertex="1" parent="1">
          <mxGeometry x="305" y="567" width="10" height="10" as="geometry" />
        </mxCell>
        <mxCell id="fvMMpbKKGiped4RriF79-181" value="" style="rounded=1;whiteSpace=wrap;html=1;fillColor=#FF8000;strokeColor=#333333;" vertex="1" parent="1">
          <mxGeometry x="305" y="567" width="10" height="10" as="geometry" />
        </mxCell>
        <mxCell id="fvMMpbKKGiped4RriF79-182" value="" style="rounded=1;whiteSpace=wrap;html=1;fillColor=#FF8000;strokeColor=#333333;" vertex="1" parent="1">
          <mxGeometry x="315" y="567" width="10" height="10" as="geometry" />
        </mxCell>
        <mxCell id="fvMMpbKKGiped4RriF79-183" value="" style="rounded=1;whiteSpace=wrap;html=1;fillColor=#004C99;strokeColor=#333333;" vertex="1" parent="1">
          <mxGeometry x="325" y="567" width="10" height="10" as="geometry" />
        </mxCell>
        <mxCell id="fvMMpbKKGiped4RriF79-184" value="" style="rounded=1;whiteSpace=wrap;html=1;fillColor=#004C99;strokeColor=#333333;" vertex="1" parent="1">
          <mxGeometry x="335" y="567" width="10" height="10" as="geometry" />
        </mxCell>
        <mxCell id="fvMMpbKKGiped4RriF79-185" value="" style="rounded=1;whiteSpace=wrap;html=1;fillColor=#004C99;strokeColor=#333333;" vertex="1" parent="1">
          <mxGeometry x="345" y="567" width="10" height="10" as="geometry" />
        </mxCell>
        <mxCell id="fvMMpbKKGiped4RriF79-186" value="" style="rounded=1;whiteSpace=wrap;html=1;fillColor=#004C99;strokeColor=#333333;" vertex="1" parent="1">
          <mxGeometry x="365" y="567" width="10" height="10" as="geometry" />
        </mxCell>
        <mxCell id="fvMMpbKKGiped4RriF79-187" value="" style="rounded=1;whiteSpace=wrap;html=1;fillColor=#FF8000;strokeColor=#333333;" vertex="1" parent="1">
          <mxGeometry x="355" y="567" width="10" height="10" as="geometry" />
        </mxCell>
        <mxCell id="fvMMpbKKGiped4RriF79-188" value="" style="rounded=1;whiteSpace=wrap;html=1;fillColor=#FF8000;strokeColor=#333333;" vertex="1" parent="1">
          <mxGeometry x="355" y="567" width="10" height="10" as="geometry" />
        </mxCell>
        <mxCell id="fvMMpbKKGiped4RriF79-191" value="De-Chunker" style="rounded=0;whiteSpace=wrap;html=1;fontSize=9;fillColor=#4C0099;strokeColor=#000000;fontColor=#FFFFFF;" vertex="1" parent="1">
          <mxGeometry x="220" y="517" width="200" height="20" as="geometry" />
        </mxCell>
        <mxCell id="fvMMpbKKGiped4RriF79-231" style="edgeStyle=orthogonalEdgeStyle;rounded=0;orthogonalLoop=1;jettySize=auto;html=1;exitX=0.5;exitY=0;exitDx=0;exitDy=0;entryX=0.5;entryY=1;entryDx=0;entryDy=0;" edge="1" parent="1" source="fvMMpbKKGiped4RriF79-191" target="fvMMpbKKGiped4RriF79-230">
          <mxGeometry relative="1" as="geometry">
            <mxPoint x="320" y="467" as="sourcePoint" />
          </mxGeometry>
        </mxCell>
        <mxCell id="fvMMpbKKGiped4RriF79-340" style="edgeStyle=orthogonalEdgeStyle;rounded=0;orthogonalLoop=1;jettySize=auto;html=1;exitX=0.5;exitY=0;exitDx=0;exitDy=0;entryX=0.5;entryY=1;entryDx=0;entryDy=0;" edge="1" parent="1" source="fvMMpbKKGiped4RriF79-222" target="fvMMpbKKGiped4RriF79-294">
          <mxGeometry relative="1" as="geometry" />
        </mxCell>
        <mxCell id="fvMMpbKKGiped4RriF79-222" value="Chunker" style="rounded=0;whiteSpace=wrap;html=1;fontSize=9;fillColor=#4C0099;strokeColor=#000000;fontColor=#FFFFFF;" vertex="1" parent="1">
          <mxGeometry x="512.5" y="920" width="40" height="20" as="geometry" />
        </mxCell>
        <mxCell id="fvMMpbKKGiped4RriF79-229" style="edgeStyle=orthogonalEdgeStyle;rounded=0;orthogonalLoop=1;jettySize=auto;html=1;exitX=0.5;exitY=0;exitDx=0;exitDy=0;entryX=0.5;entryY=1;entryDx=0;entryDy=0;" edge="1" parent="1" source="fvMMpbKKGiped4RriF79-227" target="fvMMpbKKGiped4RriF79-139">
          <mxGeometry relative="1" as="geometry" />
        </mxCell>
        <mxCell id="fvMMpbKKGiped4RriF79-232" style="edgeStyle=orthogonalEdgeStyle;rounded=0;orthogonalLoop=1;jettySize=auto;html=1;exitX=0.5;exitY=0;exitDx=0;exitDy=0;entryX=0.5;entryY=1;entryDx=0;entryDy=0;" edge="1" parent="1" source="fvMMpbKKGiped4RriF79-227" target="fvMMpbKKGiped4RriF79-230">
          <mxGeometry relative="1" as="geometry">
            <Array as="points">
              <mxPoint x="320" y="770" />
              <mxPoint x="475" y="770" />
              <mxPoint x="475" y="510" />
              <mxPoint x="320" y="510" />
            </Array>
          </mxGeometry>
        </mxCell>
        <mxCell id="fvMMpbKKGiped4RriF79-227" value="Encoder" style="rounded=0;whiteSpace=wrap;html=1;fontSize=9;fillColor=light-dark(#cd0000, #ffbeff);strokeColor=#000000;fontColor=#FFFFFF;" vertex="1" parent="1">
          <mxGeometry x="220" y="775" width="200" height="20" as="geometry" />
        </mxCell>
        <mxCell id="fvMMpbKKGiped4RriF79-261" style="edgeStyle=orthogonalEdgeStyle;rounded=0;orthogonalLoop=1;jettySize=auto;html=1;exitX=0.5;exitY=0;exitDx=0;exitDy=0;entryX=0.5;entryY=1;entryDx=0;entryDy=0;" edge="1" parent="1" source="fvMMpbKKGiped4RriF79-230" target="fvMMpbKKGiped4RriF79-233">
          <mxGeometry relative="1" as="geometry" />
        </mxCell>
        <mxCell id="fvMMpbKKGiped4RriF79-230" value="Decoder" style="rounded=0;whiteSpace=wrap;html=1;fontSize=9;fillColor=light-dark(#cd0000, #ffbeff);strokeColor=#000000;fontColor=#FFFFFF;" vertex="1" parent="1">
          <mxGeometry x="220" y="470" width="200" height="20" as="geometry" />
        </mxCell>
        <mxCell id="fvMMpbKKGiped4RriF79-530" style="edgeStyle=orthogonalEdgeStyle;rounded=0;orthogonalLoop=1;jettySize=auto;html=1;exitX=0.5;exitY=0;exitDx=0;exitDy=0;entryX=0.5;entryY=1;entryDx=0;entryDy=0;fillColor=#dae8fc;strokeColor=#6c8ebf;" edge="1" parent="1" source="fvMMpbKKGiped4RriF79-233" target="fvMMpbKKGiped4RriF79-502">
          <mxGeometry relative="1" as="geometry" />
        </mxCell>
        <mxCell id="fvMMpbKKGiped4RriF79-536" style="edgeStyle=orthogonalEdgeStyle;rounded=0;orthogonalLoop=1;jettySize=auto;html=1;exitX=0.5;exitY=0;exitDx=0;exitDy=0;entryX=0.5;entryY=1;entryDx=0;entryDy=0;fillColor=#ffe6cc;strokeColor=#d79b00;" edge="1" parent="1" source="fvMMpbKKGiped4RriF79-233" target="fvMMpbKKGiped4RriF79-532">
          <mxGeometry relative="1" as="geometry">
            <Array as="points">
              <mxPoint x="320" y="412" />
              <mxPoint x="533" y="412" />
            </Array>
          </mxGeometry>
        </mxCell>
        <mxCell id="fvMMpbKKGiped4RriF79-537" style="edgeStyle=orthogonalEdgeStyle;rounded=0;orthogonalLoop=1;jettySize=auto;html=1;exitX=0.5;exitY=0;exitDx=0;exitDy=0;entryX=0.5;entryY=1;entryDx=0;entryDy=0;fillColor=#ffe6cc;strokeColor=#d79b00;" edge="1" parent="1" source="fvMMpbKKGiped4RriF79-233" target="fvMMpbKKGiped4RriF79-534">
          <mxGeometry relative="1" as="geometry">
            <Array as="points">
              <mxPoint x="320" y="412" />
              <mxPoint x="607" y="412" />
            </Array>
          </mxGeometry>
        </mxCell>
        <mxCell id="fvMMpbKKGiped4RriF79-233" value="" style="rounded=1;whiteSpace=wrap;html=1;fillColor=#f5f5f5;fontColor=#333333;strokeColor=#666666;" vertex="1" parent="1">
          <mxGeometry x="210" y="420" width="220" height="30" as="geometry" />
        </mxCell>
        <mxCell id="fvMMpbKKGiped4RriF79-234" value="" style="rounded=1;whiteSpace=wrap;html=1;fillColor=#004C99;strokeColor=#333333;" vertex="1" parent="1">
          <mxGeometry x="220" y="430" width="10" height="10" as="geometry" />
        </mxCell>
        <mxCell id="fvMMpbKKGiped4RriF79-235" value="" style="rounded=1;whiteSpace=wrap;html=1;fillColor=#004C99;strokeColor=#333333;" vertex="1" parent="1">
          <mxGeometry x="230" y="430" width="10" height="10" as="geometry" />
        </mxCell>
        <mxCell id="fvMMpbKKGiped4RriF79-236" value="" style="rounded=1;whiteSpace=wrap;html=1;fillColor=#004C99;strokeColor=#333333;" vertex="1" parent="1">
          <mxGeometry x="240" y="430" width="10" height="10" as="geometry" />
        </mxCell>
        <mxCell id="fvMMpbKKGiped4RriF79-237" value="" style="rounded=1;whiteSpace=wrap;html=1;fillColor=#004C99;strokeColor=#333333;" vertex="1" parent="1">
          <mxGeometry x="240" y="430" width="10" height="10" as="geometry" />
        </mxCell>
        <mxCell id="fvMMpbKKGiped4RriF79-238" value="" style="rounded=1;whiteSpace=wrap;html=1;fillColor=#FF8000;strokeColor=#333333;" vertex="1" parent="1">
          <mxGeometry x="250" y="430" width="10" height="10" as="geometry" />
        </mxCell>
        <mxCell id="fvMMpbKKGiped4RriF79-239" value="" style="rounded=1;whiteSpace=wrap;html=1;fillColor=#FF8000;strokeColor=#333333;" vertex="1" parent="1">
          <mxGeometry x="260" y="430" width="10" height="10" as="geometry" />
        </mxCell>
        <mxCell id="fvMMpbKKGiped4RriF79-240" value="" style="rounded=1;whiteSpace=wrap;html=1;fillColor=#FF8000;strokeColor=#333333;" vertex="1" parent="1">
          <mxGeometry x="270" y="430" width="10" height="10" as="geometry" />
        </mxCell>
        <mxCell id="fvMMpbKKGiped4RriF79-241" value="" style="rounded=1;whiteSpace=wrap;html=1;fillColor=#FF8000;strokeColor=#333333;" vertex="1" parent="1">
          <mxGeometry x="270" y="430" width="10" height="10" as="geometry" />
        </mxCell>
        <mxCell id="fvMMpbKKGiped4RriF79-242" value="" style="rounded=1;whiteSpace=wrap;html=1;fillColor=#FF8000;strokeColor=#333333;" vertex="1" parent="1">
          <mxGeometry x="280" y="430" width="10" height="10" as="geometry" />
        </mxCell>
        <mxCell id="fvMMpbKKGiped4RriF79-243" value="" style="rounded=1;whiteSpace=wrap;html=1;fillColor=#FF8000;strokeColor=#333333;" vertex="1" parent="1">
          <mxGeometry x="290" y="430" width="10" height="10" as="geometry" />
        </mxCell>
        <mxCell id="fvMMpbKKGiped4RriF79-244" value="" style="rounded=1;whiteSpace=wrap;html=1;fillColor=#FF8000;strokeColor=#333333;" vertex="1" parent="1">
          <mxGeometry x="290" y="430" width="10" height="10" as="geometry" />
        </mxCell>
        <mxCell id="fvMMpbKKGiped4RriF79-245" value="" style="rounded=1;whiteSpace=wrap;html=1;fillColor=#004C99;strokeColor=#333333;" vertex="1" parent="1">
          <mxGeometry x="300" y="430" width="10" height="10" as="geometry" />
        </mxCell>
        <mxCell id="fvMMpbKKGiped4RriF79-246" value="" style="rounded=1;whiteSpace=wrap;html=1;fillColor=#004C99;strokeColor=#333333;" vertex="1" parent="1">
          <mxGeometry x="310" y="430" width="10" height="10" as="geometry" />
        </mxCell>
        <mxCell id="fvMMpbKKGiped4RriF79-247" value="" style="rounded=1;whiteSpace=wrap;html=1;fillColor=#004C99;strokeColor=#333333;" vertex="1" parent="1">
          <mxGeometry x="320" y="430" width="10" height="10" as="geometry" />
        </mxCell>
        <mxCell id="fvMMpbKKGiped4RriF79-248" value="" style="rounded=1;whiteSpace=wrap;html=1;fillColor=#004C99;strokeColor=#333333;" vertex="1" parent="1">
          <mxGeometry x="330" y="430" width="10" height="10" as="geometry" />
        </mxCell>
        <mxCell id="fvMMpbKKGiped4RriF79-249" value="" style="rounded=1;whiteSpace=wrap;html=1;fillColor=#004C99;strokeColor=#333333;" vertex="1" parent="1">
          <mxGeometry x="330" y="430" width="10" height="10" as="geometry" />
        </mxCell>
        <mxCell id="fvMMpbKKGiped4RriF79-250" value="" style="rounded=1;whiteSpace=wrap;html=1;fillColor=#004C99;strokeColor=#333333;" vertex="1" parent="1">
          <mxGeometry x="340" y="430" width="10" height="10" as="geometry" />
        </mxCell>
        <mxCell id="fvMMpbKKGiped4RriF79-251" value="" style="rounded=1;whiteSpace=wrap;html=1;fillColor=#004C99;strokeColor=#333333;" vertex="1" parent="1">
          <mxGeometry x="350" y="430" width="10" height="10" as="geometry" />
        </mxCell>
        <mxCell id="fvMMpbKKGiped4RriF79-252" value="" style="rounded=1;whiteSpace=wrap;html=1;fillColor=#004C99;strokeColor=#333333;" vertex="1" parent="1">
          <mxGeometry x="360" y="430" width="10" height="10" as="geometry" />
        </mxCell>
        <mxCell id="fvMMpbKKGiped4RriF79-253" value="" style="rounded=1;whiteSpace=wrap;html=1;fillColor=#004C99;strokeColor=#333333;" vertex="1" parent="1">
          <mxGeometry x="400" y="430" width="10" height="10" as="geometry" />
        </mxCell>
        <mxCell id="fvMMpbKKGiped4RriF79-254" value="" style="rounded=1;whiteSpace=wrap;html=1;fillColor=#004C99;strokeColor=#333333;" vertex="1" parent="1">
          <mxGeometry x="400" y="430" width="10" height="10" as="geometry" />
        </mxCell>
        <mxCell id="fvMMpbKKGiped4RriF79-255" value="" style="rounded=1;whiteSpace=wrap;html=1;fillColor=#004C99;strokeColor=#333333;" vertex="1" parent="1">
          <mxGeometry x="410" y="430" width="10" height="10" as="geometry" />
        </mxCell>
        <mxCell id="fvMMpbKKGiped4RriF79-256" value="" style="rounded=1;whiteSpace=wrap;html=1;fillColor=#FF8000;strokeColor=#333333;" vertex="1" parent="1">
          <mxGeometry x="370" y="430" width="10" height="10" as="geometry" />
        </mxCell>
        <mxCell id="fvMMpbKKGiped4RriF79-257" value="" style="rounded=1;whiteSpace=wrap;html=1;fillColor=#FF8000;strokeColor=#333333;" vertex="1" parent="1">
          <mxGeometry x="370" y="430" width="10" height="10" as="geometry" />
        </mxCell>
        <mxCell id="fvMMpbKKGiped4RriF79-258" value="" style="rounded=1;whiteSpace=wrap;html=1;fillColor=#FF8000;strokeColor=#333333;" vertex="1" parent="1">
          <mxGeometry x="380" y="430" width="10" height="10" as="geometry" />
        </mxCell>
        <mxCell id="fvMMpbKKGiped4RriF79-259" value="" style="rounded=1;whiteSpace=wrap;html=1;fillColor=#FF8000;strokeColor=#333333;" vertex="1" parent="1">
          <mxGeometry x="390" y="430" width="10" height="10" as="geometry" />
        </mxCell>
        <mxCell id="fvMMpbKKGiped4RriF79-260" value="" style="rounded=1;whiteSpace=wrap;html=1;fillColor=#FF8000;strokeColor=#333333;" vertex="1" parent="1">
          <mxGeometry x="390" y="430" width="10" height="10" as="geometry" />
        </mxCell>
        <mxCell id="fvMMpbKKGiped4RriF79-295" value="" style="rounded=1;whiteSpace=wrap;html=1;fillColor=#f5f5f5;fontColor=#333333;strokeColor=#666666;" vertex="1" parent="1">
          <mxGeometry x="582.5" y="852" width="50" height="50" as="geometry" />
        </mxCell>
        <mxCell id="fvMMpbKKGiped4RriF79-343" style="edgeStyle=orthogonalEdgeStyle;rounded=0;orthogonalLoop=1;jettySize=auto;html=1;exitX=0.5;exitY=0;exitDx=0;exitDy=0;entryX=0.5;entryY=1;entryDx=0;entryDy=0;" edge="1" parent="1" source="fvMMpbKKGiped4RriF79-296" target="fvMMpbKKGiped4RriF79-318">
          <mxGeometry relative="1" as="geometry">
            <mxPoint x="607.5" y="990.0000000000001" as="targetPoint" />
          </mxGeometry>
        </mxCell>
        <mxCell id="fvMMpbKKGiped4RriF79-296" value="" style="rounded=1;whiteSpace=wrap;html=1;fillColor=#f5f5f5;fontColor=#333333;strokeColor=#666666;" vertex="1" parent="1">
          <mxGeometry x="582.5" y="996" width="50" height="50" as="geometry" />
        </mxCell>
        <mxCell id="fvMMpbKKGiped4RriF79-297" value="" style="rounded=1;whiteSpace=wrap;html=1;fillColor=#FF8000;strokeColor=#333333;" vertex="1" parent="1">
          <mxGeometry x="587.5" y="1031" width="10" height="10" as="geometry" />
        </mxCell>
        <mxCell id="fvMMpbKKGiped4RriF79-298" value="" style="rounded=1;whiteSpace=wrap;html=1;fillColor=#FF8000;strokeColor=#333333;" vertex="1" parent="1">
          <mxGeometry x="597.5" y="1031" width="10" height="10" as="geometry" />
        </mxCell>
        <mxCell id="fvMMpbKKGiped4RriF79-299" value="" style="rounded=1;whiteSpace=wrap;html=1;fillColor=#FF8000;strokeColor=#333333;" vertex="1" parent="1">
          <mxGeometry x="587.5" y="1021" width="10" height="10" as="geometry" />
        </mxCell>
        <mxCell id="fvMMpbKKGiped4RriF79-300" value="" style="rounded=1;whiteSpace=wrap;html=1;fillColor=#FF8000;strokeColor=#333333;" vertex="1" parent="1">
          <mxGeometry x="587.5" y="1021" width="10" height="10" as="geometry" />
        </mxCell>
        <mxCell id="fvMMpbKKGiped4RriF79-301" value="" style="rounded=1;whiteSpace=wrap;html=1;fillColor=#FF8000;strokeColor=#333333;" vertex="1" parent="1">
          <mxGeometry x="597.5" y="1021" width="10" height="10" as="geometry" />
        </mxCell>
        <mxCell id="fvMMpbKKGiped4RriF79-302" value="" style="rounded=1;whiteSpace=wrap;html=1;fillColor=#FF8000;strokeColor=#333333;" vertex="1" parent="1">
          <mxGeometry x="607.5" y="1031" width="10" height="10" as="geometry" />
        </mxCell>
        <mxCell id="fvMMpbKKGiped4RriF79-303" value="" style="rounded=1;whiteSpace=wrap;html=1;fillColor=#FF8000;strokeColor=#333333;" vertex="1" parent="1">
          <mxGeometry x="617.5" y="1031" width="10" height="10" as="geometry" />
        </mxCell>
        <mxCell id="fvMMpbKKGiped4RriF79-304" value="" style="rounded=1;whiteSpace=wrap;html=1;fillColor=#FF8000;strokeColor=#333333;" vertex="1" parent="1">
          <mxGeometry x="607.5" y="1021" width="10" height="10" as="geometry" />
        </mxCell>
        <mxCell id="fvMMpbKKGiped4RriF79-305" value="" style="rounded=1;whiteSpace=wrap;html=1;fillColor=#FF8000;strokeColor=#333333;" vertex="1" parent="1">
          <mxGeometry x="607.5" y="1021" width="10" height="10" as="geometry" />
        </mxCell>
        <mxCell id="fvMMpbKKGiped4RriF79-306" value="" style="rounded=1;whiteSpace=wrap;html=1;fillColor=#FF8000;strokeColor=#333333;" vertex="1" parent="1">
          <mxGeometry x="617.5" y="1021" width="10" height="10" as="geometry" />
        </mxCell>
        <mxCell id="fvMMpbKKGiped4RriF79-307" value="" style="rounded=1;whiteSpace=wrap;html=1;fillColor=#FF8000;strokeColor=#333333;" vertex="1" parent="1">
          <mxGeometry x="587.5" y="1011" width="10" height="10" as="geometry" />
        </mxCell>
        <mxCell id="fvMMpbKKGiped4RriF79-308" value="" style="rounded=1;whiteSpace=wrap;html=1;fillColor=#FF8000;strokeColor=#333333;" vertex="1" parent="1">
          <mxGeometry x="597.5" y="1011" width="10" height="10" as="geometry" />
        </mxCell>
        <mxCell id="fvMMpbKKGiped4RriF79-309" value="" style="rounded=1;whiteSpace=wrap;html=1;fillColor=#FF8000;strokeColor=#333333;" vertex="1" parent="1">
          <mxGeometry x="587.5" y="1001" width="10" height="10" as="geometry" />
        </mxCell>
        <mxCell id="fvMMpbKKGiped4RriF79-310" value="" style="rounded=1;whiteSpace=wrap;html=1;fillColor=#FF8000;strokeColor=#333333;" vertex="1" parent="1">
          <mxGeometry x="587.5" y="1001" width="10" height="10" as="geometry" />
        </mxCell>
        <mxCell id="fvMMpbKKGiped4RriF79-311" value="" style="rounded=1;whiteSpace=wrap;html=1;fillColor=#FF8000;strokeColor=#333333;" vertex="1" parent="1">
          <mxGeometry x="597.5" y="1001" width="10" height="10" as="geometry" />
        </mxCell>
        <mxCell id="fvMMpbKKGiped4RriF79-312" value="" style="rounded=1;whiteSpace=wrap;html=1;fillColor=#FF8000;strokeColor=#333333;" vertex="1" parent="1">
          <mxGeometry x="607.5" y="1011" width="10" height="10" as="geometry" />
        </mxCell>
        <mxCell id="fvMMpbKKGiped4RriF79-313" value="" style="rounded=1;whiteSpace=wrap;html=1;fillColor=#FF8000;strokeColor=#333333;" vertex="1" parent="1">
          <mxGeometry x="617.5" y="1011" width="10" height="10" as="geometry" />
        </mxCell>
        <mxCell id="fvMMpbKKGiped4RriF79-314" value="" style="rounded=1;whiteSpace=wrap;html=1;fillColor=#FF8000;strokeColor=#333333;" vertex="1" parent="1">
          <mxGeometry x="607.5" y="1001" width="10" height="10" as="geometry" />
        </mxCell>
        <mxCell id="fvMMpbKKGiped4RriF79-315" value="" style="rounded=1;whiteSpace=wrap;html=1;fillColor=#FF8000;strokeColor=#333333;" vertex="1" parent="1">
          <mxGeometry x="607.5" y="1001" width="10" height="10" as="geometry" />
        </mxCell>
        <mxCell id="fvMMpbKKGiped4RriF79-316" value="" style="rounded=1;whiteSpace=wrap;html=1;fillColor=#FF8000;strokeColor=#333333;" vertex="1" parent="1">
          <mxGeometry x="617.5" y="1001" width="10" height="10" as="geometry" />
        </mxCell>
        <mxCell id="fvMMpbKKGiped4RriF79-317" style="edgeStyle=orthogonalEdgeStyle;rounded=0;orthogonalLoop=1;jettySize=auto;html=1;exitX=0.5;exitY=0;exitDx=0;exitDy=0;entryX=0.5;entryY=1;entryDx=0;entryDy=0;" edge="1" parent="1" source="fvMMpbKKGiped4RriF79-318" target="fvMMpbKKGiped4RriF79-339">
          <mxGeometry relative="1" as="geometry" />
        </mxCell>
        <mxCell id="fvMMpbKKGiped4RriF79-447" style="edgeStyle=orthogonalEdgeStyle;rounded=0;orthogonalLoop=1;jettySize=auto;html=1;exitX=0.5;exitY=0;exitDx=0;exitDy=0;entryX=0.5;entryY=1;entryDx=0;entryDy=0;" edge="1" parent="1" source="fvMMpbKKGiped4RriF79-318" target="fvMMpbKKGiped4RriF79-417">
          <mxGeometry relative="1" as="geometry">
            <Array as="points">
              <mxPoint x="608" y="950" />
              <mxPoint x="651" y="950" />
              <mxPoint x="651" y="320" />
              <mxPoint x="608" y="320" />
            </Array>
          </mxGeometry>
        </mxCell>
        <mxCell id="fvMMpbKKGiped4RriF79-318" value="Encoder" style="rounded=0;whiteSpace=wrap;html=1;fontSize=9;fillColor=#CC0000;strokeColor=#000000;fontColor=#FFFFFF;" vertex="1" parent="1">
          <mxGeometry x="587.5" y="955" width="40" height="20" as="geometry" />
        </mxCell>
        <mxCell id="fvMMpbKKGiped4RriF79-319" value="" style="rounded=1;whiteSpace=wrap;html=1;fillColor=light-dark(#999999, #ce6100);strokeColor=#333333;" vertex="1" parent="1">
          <mxGeometry x="587.5" y="887" width="10" height="10" as="geometry" />
        </mxCell>
        <mxCell id="fvMMpbKKGiped4RriF79-320" value="" style="rounded=1;whiteSpace=wrap;html=1;fillColor=light-dark(#fe8000, #ce6100);strokeColor=#333333;fontColor=#333333;" vertex="1" parent="1">
          <mxGeometry x="597.5" y="887" width="10" height="10" as="geometry" />
        </mxCell>
        <mxCell id="fvMMpbKKGiped4RriF79-321" value="" style="rounded=1;whiteSpace=wrap;html=1;fillColor=light-dark(#999999, #ce6100);strokeColor=#333333;" vertex="1" parent="1">
          <mxGeometry x="587.5" y="877" width="10" height="10" as="geometry" />
        </mxCell>
        <mxCell id="fvMMpbKKGiped4RriF79-322" value="" style="rounded=1;whiteSpace=wrap;html=1;fillColor=light-dark(#999999, #ce6100);strokeColor=#333333;fontColor=#333333;" vertex="1" parent="1">
          <mxGeometry x="587.5" y="877" width="10" height="10" as="geometry" />
        </mxCell>
        <mxCell id="fvMMpbKKGiped4RriF79-323" value="" style="rounded=1;whiteSpace=wrap;html=1;fillColor=light-dark(#999999, #ce6100);strokeColor=#333333;" vertex="1" parent="1">
          <mxGeometry x="597.5" y="877" width="10" height="10" as="geometry" />
        </mxCell>
        <mxCell id="fvMMpbKKGiped4RriF79-324" value="" style="rounded=1;whiteSpace=wrap;html=1;fillColor=light-dark(#fe8000, #ce6100);strokeColor=#333333;fontColor=#333333;" vertex="1" parent="1">
          <mxGeometry x="607.5" y="887" width="10" height="10" as="geometry" />
        </mxCell>
        <mxCell id="fvMMpbKKGiped4RriF79-325" value="" style="rounded=1;whiteSpace=wrap;html=1;fillColor=light-dark(#999999, #ce6100);strokeColor=#333333;fontColor=#333333;" vertex="1" parent="1">
          <mxGeometry x="617.5" y="887" width="10" height="10" as="geometry" />
        </mxCell>
        <mxCell id="fvMMpbKKGiped4RriF79-326" value="" style="rounded=1;whiteSpace=wrap;html=1;fillColor=light-dark(#999999, #ce6100);strokeColor=#333333;" vertex="1" parent="1">
          <mxGeometry x="607.5" y="877" width="10" height="10" as="geometry" />
        </mxCell>
        <mxCell id="fvMMpbKKGiped4RriF79-327" value="" style="rounded=1;whiteSpace=wrap;html=1;fillColor=light-dark(#999999, #ce6100);strokeColor=#333333;fontColor=#333333;" vertex="1" parent="1">
          <mxGeometry x="607.5" y="877" width="10" height="10" as="geometry" />
        </mxCell>
        <mxCell id="fvMMpbKKGiped4RriF79-328" value="" style="rounded=1;whiteSpace=wrap;html=1;fillColor=light-dark(#999999, #ce6100);strokeColor=#333333;" vertex="1" parent="1">
          <mxGeometry x="617.5" y="877" width="10" height="10" as="geometry" />
        </mxCell>
        <mxCell id="fvMMpbKKGiped4RriF79-329" value="" style="rounded=1;whiteSpace=wrap;html=1;fillColor=light-dark(#999999, #ce6100);strokeColor=#333333;" vertex="1" parent="1">
          <mxGeometry x="587.5" y="867" width="10" height="10" as="geometry" />
        </mxCell>
        <mxCell id="fvMMpbKKGiped4RriF79-330" value="" style="rounded=1;whiteSpace=wrap;html=1;fillColor=light-dark(#999999, #ce6100);strokeColor=#333333;fontColor=#333333;" vertex="1" parent="1">
          <mxGeometry x="597.5" y="867" width="10" height="10" as="geometry" />
        </mxCell>
        <mxCell id="fvMMpbKKGiped4RriF79-331" value="" style="rounded=1;whiteSpace=wrap;html=1;fillColor=light-dark(#999999, #ce6100);strokeColor=#333333;fontColor=#333333;" vertex="1" parent="1">
          <mxGeometry x="587.5" y="857" width="10" height="10" as="geometry" />
        </mxCell>
        <mxCell id="fvMMpbKKGiped4RriF79-332" value="" style="rounded=1;whiteSpace=wrap;html=1;fillColor=light-dark(#999999, #ce6100);strokeColor=#333333;fontColor=#333333;" vertex="1" parent="1">
          <mxGeometry x="587.5" y="857" width="10" height="10" as="geometry" />
        </mxCell>
        <mxCell id="fvMMpbKKGiped4RriF79-333" value="" style="rounded=1;whiteSpace=wrap;html=1;fillColor=light-dark(#fe8000, #ce6100);strokeColor=#333333;fontColor=#333333;" vertex="1" parent="1">
          <mxGeometry x="597.5" y="857" width="10" height="10" as="geometry" />
        </mxCell>
        <mxCell id="fvMMpbKKGiped4RriF79-334" value="" style="rounded=1;whiteSpace=wrap;html=1;fillColor=light-dark(#999999, #ce6100);strokeColor=#333333;fontColor=#333333;" vertex="1" parent="1">
          <mxGeometry x="607.5" y="867" width="10" height="10" as="geometry" />
        </mxCell>
        <mxCell id="fvMMpbKKGiped4RriF79-335" value="" style="rounded=1;whiteSpace=wrap;html=1;fillColor=light-dark(#999999, #ce6100);strokeColor=#333333;fontColor=#333333;" vertex="1" parent="1">
          <mxGeometry x="617.5" y="867" width="10" height="10" as="geometry" />
        </mxCell>
        <mxCell id="fvMMpbKKGiped4RriF79-336" value="" style="rounded=1;whiteSpace=wrap;html=1;fillColor=light-dark(#999999, #ce6100);strokeColor=#333333;" vertex="1" parent="1">
          <mxGeometry x="607.5" y="857" width="10" height="10" as="geometry" />
        </mxCell>
        <mxCell id="fvMMpbKKGiped4RriF79-337" value="" style="rounded=1;whiteSpace=wrap;html=1;fillColor=light-dark(#999999, #ce6100);strokeColor=#333333;" vertex="1" parent="1">
          <mxGeometry x="607.5" y="857" width="10" height="10" as="geometry" />
        </mxCell>
        <mxCell id="fvMMpbKKGiped4RriF79-338" value="" style="rounded=1;whiteSpace=wrap;html=1;fillColor=light-dark(#999999, #ce6100);strokeColor=#333333;fontColor=#333333;" vertex="1" parent="1">
          <mxGeometry x="617.5" y="857" width="10" height="10" as="geometry" />
        </mxCell>
        <mxCell id="fvMMpbKKGiped4RriF79-341" style="edgeStyle=orthogonalEdgeStyle;rounded=0;orthogonalLoop=1;jettySize=auto;html=1;exitX=0.5;exitY=0;exitDx=0;exitDy=0;entryX=0.5;entryY=1;entryDx=0;entryDy=0;" edge="1" parent="1" source="fvMMpbKKGiped4RriF79-339" target="fvMMpbKKGiped4RriF79-295">
          <mxGeometry relative="1" as="geometry" />
        </mxCell>
        <mxCell id="fvMMpbKKGiped4RriF79-339" value="Chunker" style="rounded=0;whiteSpace=wrap;html=1;fontSize=9;fillColor=#4C0099;strokeColor=#000000;fontColor=#FFFFFF;" vertex="1" parent="1">
          <mxGeometry x="587.5" y="920" width="40" height="20" as="geometry" />
        </mxCell>
        <mxCell id="fvMMpbKKGiped4RriF79-344" style="edgeStyle=orthogonalEdgeStyle;rounded=0;orthogonalLoop=1;jettySize=auto;html=1;exitX=0;exitY=0.5;exitDx=0;exitDy=0;entryX=0.293;entryY=1.008;entryDx=0;entryDy=0;entryPerimeter=0;fillColor=#ffe6cc;strokeColor=#d79b00;" edge="1" parent="1" source="fvMMpbKKGiped4RriF79-294" target="fvMMpbKKGiped4RriF79-136">
          <mxGeometry relative="1" as="geometry" />
        </mxCell>
        <mxCell id="fvMMpbKKGiped4RriF79-538" style="edgeStyle=orthogonalEdgeStyle;rounded=0;orthogonalLoop=1;jettySize=auto;html=1;exitX=0.5;exitY=0;exitDx=0;exitDy=0;entryX=0.5;entryY=1;entryDx=0;entryDy=0;" edge="1" parent="1" source="fvMMpbKKGiped4RriF79-348" target="fvMMpbKKGiped4RriF79-500">
          <mxGeometry relative="1" as="geometry" />
        </mxCell>
        <mxCell id="fvMMpbKKGiped4RriF79-348" value="" style="rounded=1;whiteSpace=wrap;html=1;fillColor=#f5f5f5;fontColor=#333333;strokeColor=#666666;" vertex="1" parent="1">
          <mxGeometry x="507.5" y="220" width="50" height="50" as="geometry" />
        </mxCell>
        <mxCell id="fvMMpbKKGiped4RriF79-349" value="" style="rounded=1;whiteSpace=wrap;html=1;fillColor=#FF8000;strokeColor=#333333;" vertex="1" parent="1">
          <mxGeometry x="512.5" y="255" width="10" height="10" as="geometry" />
        </mxCell>
        <mxCell id="fvMMpbKKGiped4RriF79-350" value="" style="rounded=1;whiteSpace=wrap;html=1;fillColor=#FF8000;strokeColor=#333333;" vertex="1" parent="1">
          <mxGeometry x="522.5" y="255" width="10" height="10" as="geometry" />
        </mxCell>
        <mxCell id="fvMMpbKKGiped4RriF79-351" value="" style="rounded=1;whiteSpace=wrap;html=1;fillColor=#FF8000;strokeColor=#333333;" vertex="1" parent="1">
          <mxGeometry x="512.5" y="245" width="10" height="10" as="geometry" />
        </mxCell>
        <mxCell id="fvMMpbKKGiped4RriF79-352" value="" style="rounded=1;whiteSpace=wrap;html=1;fillColor=#FF8000;strokeColor=#333333;" vertex="1" parent="1">
          <mxGeometry x="512.5" y="245" width="10" height="10" as="geometry" />
        </mxCell>
        <mxCell id="fvMMpbKKGiped4RriF79-353" value="" style="rounded=1;whiteSpace=wrap;html=1;fillColor=#FF8000;strokeColor=#333333;" vertex="1" parent="1">
          <mxGeometry x="522.5" y="245" width="10" height="10" as="geometry" />
        </mxCell>
        <mxCell id="fvMMpbKKGiped4RriF79-354" value="" style="rounded=1;whiteSpace=wrap;html=1;fillColor=#FF8000;strokeColor=#333333;" vertex="1" parent="1">
          <mxGeometry x="532.5" y="255" width="10" height="10" as="geometry" />
        </mxCell>
        <mxCell id="fvMMpbKKGiped4RriF79-355" value="" style="rounded=1;whiteSpace=wrap;html=1;fillColor=#FF8000;strokeColor=#333333;" vertex="1" parent="1">
          <mxGeometry x="542.5" y="255" width="10" height="10" as="geometry" />
        </mxCell>
        <mxCell id="fvMMpbKKGiped4RriF79-356" value="" style="rounded=1;whiteSpace=wrap;html=1;fillColor=#FF8000;strokeColor=#333333;" vertex="1" parent="1">
          <mxGeometry x="532.5" y="245" width="10" height="10" as="geometry" />
        </mxCell>
        <mxCell id="fvMMpbKKGiped4RriF79-357" value="" style="rounded=1;whiteSpace=wrap;html=1;fillColor=#FF8000;strokeColor=#333333;" vertex="1" parent="1">
          <mxGeometry x="532.5" y="245" width="10" height="10" as="geometry" />
        </mxCell>
        <mxCell id="fvMMpbKKGiped4RriF79-358" value="" style="rounded=1;whiteSpace=wrap;html=1;fillColor=#FF8000;strokeColor=#333333;" vertex="1" parent="1">
          <mxGeometry x="542.5" y="245" width="10" height="10" as="geometry" />
        </mxCell>
        <mxCell id="fvMMpbKKGiped4RriF79-359" value="" style="rounded=1;whiteSpace=wrap;html=1;fillColor=#FF8000;strokeColor=#333333;" vertex="1" parent="1">
          <mxGeometry x="512.5" y="235" width="10" height="10" as="geometry" />
        </mxCell>
        <mxCell id="fvMMpbKKGiped4RriF79-360" value="" style="rounded=1;whiteSpace=wrap;html=1;fillColor=#FF8000;strokeColor=#333333;" vertex="1" parent="1">
          <mxGeometry x="522.5" y="235" width="10" height="10" as="geometry" />
        </mxCell>
        <mxCell id="fvMMpbKKGiped4RriF79-361" value="" style="rounded=1;whiteSpace=wrap;html=1;fillColor=#FF8000;strokeColor=#333333;" vertex="1" parent="1">
          <mxGeometry x="512.5" y="225" width="10" height="10" as="geometry" />
        </mxCell>
        <mxCell id="fvMMpbKKGiped4RriF79-362" value="" style="rounded=1;whiteSpace=wrap;html=1;fillColor=#FF8000;strokeColor=#333333;" vertex="1" parent="1">
          <mxGeometry x="512.5" y="225" width="10" height="10" as="geometry" />
        </mxCell>
        <mxCell id="fvMMpbKKGiped4RriF79-363" value="" style="rounded=1;whiteSpace=wrap;html=1;fillColor=#FF8000;strokeColor=#333333;" vertex="1" parent="1">
          <mxGeometry x="522.5" y="225" width="10" height="10" as="geometry" />
        </mxCell>
        <mxCell id="fvMMpbKKGiped4RriF79-364" value="" style="rounded=1;whiteSpace=wrap;html=1;fillColor=#FF8000;strokeColor=#333333;" vertex="1" parent="1">
          <mxGeometry x="532.5" y="235" width="10" height="10" as="geometry" />
        </mxCell>
        <mxCell id="fvMMpbKKGiped4RriF79-365" value="" style="rounded=1;whiteSpace=wrap;html=1;fillColor=#FF8000;strokeColor=#333333;" vertex="1" parent="1">
          <mxGeometry x="542.5" y="235" width="10" height="10" as="geometry" />
        </mxCell>
        <mxCell id="fvMMpbKKGiped4RriF79-366" value="" style="rounded=1;whiteSpace=wrap;html=1;fillColor=#FF8000;strokeColor=#333333;" vertex="1" parent="1">
          <mxGeometry x="532.5" y="225" width="10" height="10" as="geometry" />
        </mxCell>
        <mxCell id="fvMMpbKKGiped4RriF79-367" value="" style="rounded=1;whiteSpace=wrap;html=1;fillColor=#FF8000;strokeColor=#333333;" vertex="1" parent="1">
          <mxGeometry x="532.5" y="225" width="10" height="10" as="geometry" />
        </mxCell>
        <mxCell id="fvMMpbKKGiped4RriF79-368" value="" style="rounded=1;whiteSpace=wrap;html=1;fillColor=#FF8000;strokeColor=#333333;" vertex="1" parent="1">
          <mxGeometry x="542.5" y="225" width="10" height="10" as="geometry" />
        </mxCell>
        <mxCell id="fvMMpbKKGiped4RriF79-443" style="edgeStyle=orthogonalEdgeStyle;rounded=0;orthogonalLoop=1;jettySize=auto;html=1;exitX=0.5;exitY=0;exitDx=0;exitDy=0;entryX=0.5;entryY=1;entryDx=0;entryDy=0;" edge="1" parent="1" source="fvMMpbKKGiped4RriF79-370" target="fvMMpbKKGiped4RriF79-348">
          <mxGeometry relative="1" as="geometry" />
        </mxCell>
        <mxCell id="fvMMpbKKGiped4RriF79-370" value="Decoder" style="rounded=0;whiteSpace=wrap;html=1;fontSize=9;fillColor=#CC0000;strokeColor=#000000;fontColor=#FFFFFF;" vertex="1" parent="1">
          <mxGeometry x="512.5" y="285" width="40" height="20" as="geometry" />
        </mxCell>
        <mxCell id="fvMMpbKKGiped4RriF79-442" style="edgeStyle=orthogonalEdgeStyle;rounded=0;orthogonalLoop=1;jettySize=auto;html=1;exitX=0.5;exitY=0;exitDx=0;exitDy=0;entryX=0.5;entryY=1;entryDx=0;entryDy=0;" edge="1" parent="1" source="fvMMpbKKGiped4RriF79-392" target="fvMMpbKKGiped4RriF79-370">
          <mxGeometry relative="1" as="geometry" />
        </mxCell>
        <mxCell id="fvMMpbKKGiped4RriF79-392" value="De-Chunker" style="rounded=0;whiteSpace=wrap;html=1;fontSize=9;fillColor=#4C0099;strokeColor=#000000;fontColor=#FFFFFF;" vertex="1" parent="1">
          <mxGeometry x="512.5" y="329" width="40" height="20" as="geometry" />
        </mxCell>
        <mxCell id="fvMMpbKKGiped4RriF79-539" style="edgeStyle=orthogonalEdgeStyle;rounded=0;orthogonalLoop=1;jettySize=auto;html=1;exitX=0.5;exitY=0;exitDx=0;exitDy=0;entryX=0.5;entryY=1;entryDx=0;entryDy=0;" edge="1" parent="1" source="fvMMpbKKGiped4RriF79-395" target="fvMMpbKKGiped4RriF79-501">
          <mxGeometry relative="1" as="geometry" />
        </mxCell>
        <mxCell id="fvMMpbKKGiped4RriF79-395" value="" style="rounded=1;whiteSpace=wrap;html=1;fillColor=#f5f5f5;fontColor=#333333;strokeColor=#666666;" vertex="1" parent="1">
          <mxGeometry x="582.5" y="220" width="50" height="50" as="geometry" />
        </mxCell>
        <mxCell id="fvMMpbKKGiped4RriF79-396" value="" style="rounded=1;whiteSpace=wrap;html=1;fillColor=#FF8000;strokeColor=#333333;" vertex="1" parent="1">
          <mxGeometry x="587.5" y="255" width="10" height="10" as="geometry" />
        </mxCell>
        <mxCell id="fvMMpbKKGiped4RriF79-397" value="" style="rounded=1;whiteSpace=wrap;html=1;fillColor=#FF8000;strokeColor=#333333;" vertex="1" parent="1">
          <mxGeometry x="597.5" y="255" width="10" height="10" as="geometry" />
        </mxCell>
        <mxCell id="fvMMpbKKGiped4RriF79-398" value="" style="rounded=1;whiteSpace=wrap;html=1;fillColor=#FF8000;strokeColor=#333333;" vertex="1" parent="1">
          <mxGeometry x="587.5" y="245" width="10" height="10" as="geometry" />
        </mxCell>
        <mxCell id="fvMMpbKKGiped4RriF79-399" value="" style="rounded=1;whiteSpace=wrap;html=1;fillColor=#FF8000;strokeColor=#333333;" vertex="1" parent="1">
          <mxGeometry x="587.5" y="245" width="10" height="10" as="geometry" />
        </mxCell>
        <mxCell id="fvMMpbKKGiped4RriF79-400" value="" style="rounded=1;whiteSpace=wrap;html=1;fillColor=#FF8000;strokeColor=#333333;" vertex="1" parent="1">
          <mxGeometry x="597.5" y="245" width="10" height="10" as="geometry" />
        </mxCell>
        <mxCell id="fvMMpbKKGiped4RriF79-401" value="" style="rounded=1;whiteSpace=wrap;html=1;fillColor=#FF8000;strokeColor=#333333;" vertex="1" parent="1">
          <mxGeometry x="607.5" y="255" width="10" height="10" as="geometry" />
        </mxCell>
        <mxCell id="fvMMpbKKGiped4RriF79-402" value="" style="rounded=1;whiteSpace=wrap;html=1;fillColor=#FF8000;strokeColor=#333333;" vertex="1" parent="1">
          <mxGeometry x="617.5" y="255" width="10" height="10" as="geometry" />
        </mxCell>
        <mxCell id="fvMMpbKKGiped4RriF79-403" value="" style="rounded=1;whiteSpace=wrap;html=1;fillColor=#FF8000;strokeColor=#333333;" vertex="1" parent="1">
          <mxGeometry x="607.5" y="245" width="10" height="10" as="geometry" />
        </mxCell>
        <mxCell id="fvMMpbKKGiped4RriF79-404" value="" style="rounded=1;whiteSpace=wrap;html=1;fillColor=#FF8000;strokeColor=#333333;" vertex="1" parent="1">
          <mxGeometry x="607.5" y="245" width="10" height="10" as="geometry" />
        </mxCell>
        <mxCell id="fvMMpbKKGiped4RriF79-405" value="" style="rounded=1;whiteSpace=wrap;html=1;fillColor=#FF8000;strokeColor=#333333;" vertex="1" parent="1">
          <mxGeometry x="617.5" y="245" width="10" height="10" as="geometry" />
        </mxCell>
        <mxCell id="fvMMpbKKGiped4RriF79-406" value="" style="rounded=1;whiteSpace=wrap;html=1;fillColor=#FF8000;strokeColor=#333333;" vertex="1" parent="1">
          <mxGeometry x="587.5" y="235" width="10" height="10" as="geometry" />
        </mxCell>
        <mxCell id="fvMMpbKKGiped4RriF79-407" value="" style="rounded=1;whiteSpace=wrap;html=1;fillColor=#FF8000;strokeColor=#333333;" vertex="1" parent="1">
          <mxGeometry x="597.5" y="235" width="10" height="10" as="geometry" />
        </mxCell>
        <mxCell id="fvMMpbKKGiped4RriF79-408" value="" style="rounded=1;whiteSpace=wrap;html=1;fillColor=#FF8000;strokeColor=#333333;" vertex="1" parent="1">
          <mxGeometry x="587.5" y="225" width="10" height="10" as="geometry" />
        </mxCell>
        <mxCell id="fvMMpbKKGiped4RriF79-409" value="" style="rounded=1;whiteSpace=wrap;html=1;fillColor=#FF8000;strokeColor=#333333;" vertex="1" parent="1">
          <mxGeometry x="587.5" y="225" width="10" height="10" as="geometry" />
        </mxCell>
        <mxCell id="fvMMpbKKGiped4RriF79-410" value="" style="rounded=1;whiteSpace=wrap;html=1;fillColor=#FF8000;strokeColor=#333333;" vertex="1" parent="1">
          <mxGeometry x="597.5" y="225" width="10" height="10" as="geometry" />
        </mxCell>
        <mxCell id="fvMMpbKKGiped4RriF79-411" value="" style="rounded=1;whiteSpace=wrap;html=1;fillColor=#FF8000;strokeColor=#333333;" vertex="1" parent="1">
          <mxGeometry x="607.5" y="235" width="10" height="10" as="geometry" />
        </mxCell>
        <mxCell id="fvMMpbKKGiped4RriF79-412" value="" style="rounded=1;whiteSpace=wrap;html=1;fillColor=#FF8000;strokeColor=#333333;" vertex="1" parent="1">
          <mxGeometry x="617.5" y="235" width="10" height="10" as="geometry" />
        </mxCell>
        <mxCell id="fvMMpbKKGiped4RriF79-413" value="" style="rounded=1;whiteSpace=wrap;html=1;fillColor=#FF8000;strokeColor=#333333;" vertex="1" parent="1">
          <mxGeometry x="607.5" y="225" width="10" height="10" as="geometry" />
        </mxCell>
        <mxCell id="fvMMpbKKGiped4RriF79-414" value="" style="rounded=1;whiteSpace=wrap;html=1;fillColor=#FF8000;strokeColor=#333333;" vertex="1" parent="1">
          <mxGeometry x="607.5" y="225" width="10" height="10" as="geometry" />
        </mxCell>
        <mxCell id="fvMMpbKKGiped4RriF79-415" value="" style="rounded=1;whiteSpace=wrap;html=1;fillColor=#FF8000;strokeColor=#333333;" vertex="1" parent="1">
          <mxGeometry x="617.5" y="225" width="10" height="10" as="geometry" />
        </mxCell>
        <mxCell id="fvMMpbKKGiped4RriF79-445" style="edgeStyle=orthogonalEdgeStyle;rounded=0;orthogonalLoop=1;jettySize=auto;html=1;exitX=0.5;exitY=0;exitDx=0;exitDy=0;entryX=0.5;entryY=1;entryDx=0;entryDy=0;" edge="1" parent="1" source="fvMMpbKKGiped4RriF79-417" target="fvMMpbKKGiped4RriF79-395">
          <mxGeometry relative="1" as="geometry" />
        </mxCell>
        <mxCell id="fvMMpbKKGiped4RriF79-417" value="Decoder" style="rounded=0;whiteSpace=wrap;html=1;fontSize=9;fillColor=#CC0000;strokeColor=#000000;fontColor=#FFFFFF;" vertex="1" parent="1">
          <mxGeometry x="587.5" y="285" width="40" height="20" as="geometry" />
        </mxCell>
        <mxCell id="fvMMpbKKGiped4RriF79-444" style="edgeStyle=orthogonalEdgeStyle;rounded=0;orthogonalLoop=1;jettySize=auto;html=1;exitX=0.5;exitY=0;exitDx=0;exitDy=0;entryX=0.5;entryY=1;entryDx=0;entryDy=0;" edge="1" parent="1" source="fvMMpbKKGiped4RriF79-439" target="fvMMpbKKGiped4RriF79-417">
          <mxGeometry relative="1" as="geometry" />
        </mxCell>
        <mxCell id="fvMMpbKKGiped4RriF79-439" value="De-Chunker" style="rounded=0;whiteSpace=wrap;html=1;fontSize=9;fillColor=#4C0099;strokeColor=#000000;fontColor=#FFFFFF;" vertex="1" parent="1">
          <mxGeometry x="587.5" y="329" width="40" height="20" as="geometry" />
        </mxCell>
        <mxCell id="fvMMpbKKGiped4RriF79-497" value="Language Head" style="rounded=0;whiteSpace=wrap;html=1;fontSize=9;fillColor=light-dark(#009900,#FFBEFF);strokeColor=#000000;fontColor=#FFFFFF;" vertex="1" parent="1">
          <mxGeometry x="260" y="318" width="120" height="20" as="geometry" />
        </mxCell>
        <mxCell id="fvMMpbKKGiped4RriF79-500" value="Image Head" style="rounded=0;whiteSpace=wrap;html=1;fontSize=9;fillColor=light-dark(#0d9901, #ffa3a3);strokeColor=#000000;fontColor=#FFFFFF;" vertex="1" parent="1">
          <mxGeometry x="512.5" y="180" width="40" height="20" as="geometry" />
        </mxCell>
        <mxCell id="fvMMpbKKGiped4RriF79-501" value="Image Head" style="rounded=0;whiteSpace=wrap;html=1;fontSize=9;fillColor=light-dark(#0d9901, #ffa3a3);strokeColor=#000000;fontColor=#FFFFFF;" vertex="1" parent="1">
          <mxGeometry x="587.5" y="180" width="40" height="20" as="geometry" />
        </mxCell>
        <mxCell id="fvMMpbKKGiped4RriF79-531" style="edgeStyle=orthogonalEdgeStyle;rounded=0;orthogonalLoop=1;jettySize=auto;html=1;exitX=0.5;exitY=0;exitDx=0;exitDy=0;entryX=0.5;entryY=1;entryDx=0;entryDy=0;" edge="1" parent="1" source="fvMMpbKKGiped4RriF79-502" target="fvMMpbKKGiped4RriF79-497">
          <mxGeometry relative="1" as="geometry" />
        </mxCell>
        <mxCell id="fvMMpbKKGiped4RriF79-502" value="" style="rounded=1;whiteSpace=wrap;html=1;fillColor=#f5f5f5;fontColor=#333333;strokeColor=#666666;" vertex="1" parent="1">
          <mxGeometry x="250" y="362" width="140" height="30" as="geometry" />
        </mxCell>
        <mxCell id="fvMMpbKKGiped4RriF79-503" value="" style="rounded=1;whiteSpace=wrap;html=1;fillColor=#004C99;strokeColor=#333333;" vertex="1" parent="1">
          <mxGeometry x="260" y="372" width="10" height="10" as="geometry" />
        </mxCell>
        <mxCell id="fvMMpbKKGiped4RriF79-504" value="" style="rounded=1;whiteSpace=wrap;html=1;fillColor=#004C99;strokeColor=#333333;" vertex="1" parent="1">
          <mxGeometry x="270" y="372" width="10" height="10" as="geometry" />
        </mxCell>
        <mxCell id="fvMMpbKKGiped4RriF79-505" value="" style="rounded=1;whiteSpace=wrap;html=1;fillColor=#004C99;strokeColor=#333333;" vertex="1" parent="1">
          <mxGeometry x="280" y="372" width="10" height="10" as="geometry" />
        </mxCell>
        <mxCell id="fvMMpbKKGiped4RriF79-506" value="" style="rounded=1;whiteSpace=wrap;html=1;fillColor=#004C99;strokeColor=#333333;" vertex="1" parent="1">
          <mxGeometry x="280" y="372" width="10" height="10" as="geometry" />
        </mxCell>
        <mxCell id="fvMMpbKKGiped4RriF79-507" value="" style="rounded=1;whiteSpace=wrap;html=1;fillColor=#FF8000;strokeColor=#333333;" vertex="1" parent="1">
          <mxGeometry x="507.5" y="372" width="10" height="10" as="geometry" />
        </mxCell>
        <mxCell id="fvMMpbKKGiped4RriF79-508" value="" style="rounded=1;whiteSpace=wrap;html=1;fillColor=#FF8000;strokeColor=#333333;" vertex="1" parent="1">
          <mxGeometry x="517.5" y="372" width="10" height="10" as="geometry" />
        </mxCell>
        <mxCell id="fvMMpbKKGiped4RriF79-509" value="" style="rounded=1;whiteSpace=wrap;html=1;fillColor=#FF8000;strokeColor=#333333;" vertex="1" parent="1">
          <mxGeometry x="527.5" y="372" width="10" height="10" as="geometry" />
        </mxCell>
        <mxCell id="fvMMpbKKGiped4RriF79-510" value="" style="rounded=1;whiteSpace=wrap;html=1;fillColor=#FF8000;strokeColor=#333333;" vertex="1" parent="1">
          <mxGeometry x="527.5" y="372" width="10" height="10" as="geometry" />
        </mxCell>
        <mxCell id="fvMMpbKKGiped4RriF79-511" value="" style="rounded=1;whiteSpace=wrap;html=1;fillColor=#FF8000;strokeColor=#333333;" vertex="1" parent="1">
          <mxGeometry x="537.5" y="372" width="10" height="10" as="geometry" />
        </mxCell>
        <mxCell id="fvMMpbKKGiped4RriF79-512" value="" style="rounded=1;whiteSpace=wrap;html=1;fillColor=#FF8000;strokeColor=#333333;" vertex="1" parent="1">
          <mxGeometry x="547.5" y="372" width="10" height="10" as="geometry" />
        </mxCell>
        <mxCell id="fvMMpbKKGiped4RriF79-513" value="" style="rounded=1;whiteSpace=wrap;html=1;fillColor=#FF8000;strokeColor=#333333;" vertex="1" parent="1">
          <mxGeometry x="547.5" y="372" width="10" height="10" as="geometry" />
        </mxCell>
        <mxCell id="fvMMpbKKGiped4RriF79-514" value="" style="rounded=1;whiteSpace=wrap;html=1;fillColor=#004C99;strokeColor=#333333;" vertex="1" parent="1">
          <mxGeometry x="290" y="372" width="10" height="10" as="geometry" />
        </mxCell>
        <mxCell id="fvMMpbKKGiped4RriF79-515" value="" style="rounded=1;whiteSpace=wrap;html=1;fillColor=#004C99;strokeColor=#333333;" vertex="1" parent="1">
          <mxGeometry x="300" y="372" width="10" height="10" as="geometry" />
        </mxCell>
        <mxCell id="fvMMpbKKGiped4RriF79-516" value="" style="rounded=1;whiteSpace=wrap;html=1;fillColor=#004C99;strokeColor=#333333;" vertex="1" parent="1">
          <mxGeometry x="310" y="372" width="10" height="10" as="geometry" />
        </mxCell>
        <mxCell id="fvMMpbKKGiped4RriF79-517" value="" style="rounded=1;whiteSpace=wrap;html=1;fillColor=#004C99;strokeColor=#333333;" vertex="1" parent="1">
          <mxGeometry x="320" y="372" width="10" height="10" as="geometry" />
        </mxCell>
        <mxCell id="fvMMpbKKGiped4RriF79-518" value="" style="rounded=1;whiteSpace=wrap;html=1;fillColor=#004C99;strokeColor=#333333;" vertex="1" parent="1">
          <mxGeometry x="320" y="372" width="10" height="10" as="geometry" />
        </mxCell>
        <mxCell id="fvMMpbKKGiped4RriF79-519" value="" style="rounded=1;whiteSpace=wrap;html=1;fillColor=#004C99;strokeColor=#333333;" vertex="1" parent="1">
          <mxGeometry x="330" y="372" width="10" height="10" as="geometry" />
        </mxCell>
        <mxCell id="fvMMpbKKGiped4RriF79-520" value="" style="rounded=1;whiteSpace=wrap;html=1;fillColor=#004C99;strokeColor=#333333;" vertex="1" parent="1">
          <mxGeometry x="340" y="372" width="10" height="10" as="geometry" />
        </mxCell>
        <mxCell id="fvMMpbKKGiped4RriF79-521" value="" style="rounded=1;whiteSpace=wrap;html=1;fillColor=#004C99;strokeColor=#333333;" vertex="1" parent="1">
          <mxGeometry x="350" y="372" width="10" height="10" as="geometry" />
        </mxCell>
        <mxCell id="fvMMpbKKGiped4RriF79-522" value="" style="rounded=1;whiteSpace=wrap;html=1;fillColor=#004C99;strokeColor=#333333;" vertex="1" parent="1">
          <mxGeometry x="360" y="372" width="10" height="10" as="geometry" />
        </mxCell>
        <mxCell id="fvMMpbKKGiped4RriF79-523" value="" style="rounded=1;whiteSpace=wrap;html=1;fillColor=#004C99;strokeColor=#333333;" vertex="1" parent="1">
          <mxGeometry x="360" y="372" width="10" height="10" as="geometry" />
        </mxCell>
        <mxCell id="fvMMpbKKGiped4RriF79-524" value="" style="rounded=1;whiteSpace=wrap;html=1;fillColor=#004C99;strokeColor=#333333;" vertex="1" parent="1">
          <mxGeometry x="370" y="372" width="10" height="10" as="geometry" />
        </mxCell>
        <mxCell id="fvMMpbKKGiped4RriF79-525" value="" style="rounded=1;whiteSpace=wrap;html=1;fillColor=#FF8000;strokeColor=#333333;" vertex="1" parent="1">
          <mxGeometry x="592.5" y="372" width="10" height="10" as="geometry" />
        </mxCell>
        <mxCell id="fvMMpbKKGiped4RriF79-526" value="" style="rounded=1;whiteSpace=wrap;html=1;fillColor=#FF8000;strokeColor=#333333;" vertex="1" parent="1">
          <mxGeometry x="592.5" y="372" width="10" height="10" as="geometry" />
        </mxCell>
        <mxCell id="fvMMpbKKGiped4RriF79-527" value="" style="rounded=1;whiteSpace=wrap;html=1;fillColor=#FF8000;strokeColor=#333333;" vertex="1" parent="1">
          <mxGeometry x="602.5" y="372" width="10" height="10" as="geometry" />
        </mxCell>
        <mxCell id="fvMMpbKKGiped4RriF79-528" value="" style="rounded=1;whiteSpace=wrap;html=1;fillColor=#FF8000;strokeColor=#333333;" vertex="1" parent="1">
          <mxGeometry x="612.5" y="372" width="10" height="10" as="geometry" />
        </mxCell>
        <mxCell id="fvMMpbKKGiped4RriF79-529" value="" style="rounded=1;whiteSpace=wrap;html=1;fillColor=#FF8000;strokeColor=#333333;" vertex="1" parent="1">
          <mxGeometry x="612.5" y="372" width="10" height="10" as="geometry" />
        </mxCell>
      </root>
    </mxGraphModel>
  </diagram>
</mxfile>
